<?xml version="1.0" encoding="UTF-8" standalone="no"?>
<!DOCTYPE svg PUBLIC "-//W3C//DTD SVG 1.1//EN" "http://www.w3.org/Graphics/SVG/1.1/DTD/svg11.dtd">
<svg width="100%" height="100%" viewBox="0 0 270 100" version="1.1" xmlns="http://www.w3.org/2000/svg" xmlns:xlink="http://www.w3.org/1999/xlink" xml:space="preserve" style="fill-rule:evenodd;clip-rule:evenodd;stroke-linejoin:round;stroke-miterlimit:1.41421;">
    <g transform="matrix(1,0,0,1,-361.708,-367.674)">
        <path d="M450.432,395.272L450.248,386.44L387.32,386.44C382.628,386.44 371.68,388.096 371.68,399.688L371.68,449L386.124,449L386.124,420.48L450.248,420.48L450.248,411.648L386.124,411.648L386.124,399.688C386.124,397.296 388.148,395.364 390.54,395.364L450.432,395.272Z" style="fill:rgb(196,196,196);fill-rule:nonzero;"/>
        <path d="M535.992,416.984L535.992,399.78C535.992,387.268 524.768,386.44 520.076,386.44L457.608,386.348L457.608,449L472.144,449L472.236,430.232L520.076,430.232C524.768,430.232 535.992,429.496 535.992,416.984ZM521.64,417.168C521.64,419.56 519.708,421.584 517.224,421.584L472.052,421.584L472.052,395.088L517.224,395.088C519.708,395.088 521.64,397.112 521.64,399.596L521.64,417.168Z" style="fill:rgb(196,196,196);fill-rule:nonzero;"/>
        <path d="M621.736,435.66L621.736,399.688C621.736,387.176 610.512,386.348 605.82,386.348L559.452,386.348C554.76,386.348 543.352,387.176 543.352,399.688L543.352,435.66C543.352,448.172 554.76,449 559.452,449L605.82,449C610.512,449 621.736,448.172 621.736,435.66ZM607.384,435.844C607.384,438.328 605.452,440.352 602.968,440.352L562.304,440.352C559.82,440.352 557.796,438.328 557.796,435.844L557.796,399.504C557.796,397.02 559.82,394.996 562.304,394.996L602.968,394.996C605.452,394.996 607.384,397.02 607.384,399.504L607.384,435.844Z" style="fill:rgb(196,196,196);fill-rule:nonzero;"/>
    </g>
</svg>
