<?xml version="1.0" encoding="UTF-8" standalone="no"?>
<!DOCTYPE svg PUBLIC "-//W3C//DTD SVG 1.1//EN" "http://www.w3.org/Graphics/SVG/1.1/DTD/svg11.dtd">
<svg width="100%" height="100%" viewBox="0 0 990 200" version="1.1" xmlns="http://www.w3.org/2000/svg" xmlns:xlink="http://www.w3.org/1999/xlink" xml:space="preserve" xmlns:serif="http://www.serif.com/" style="fill-rule:evenodd;clip-rule:evenodd;stroke-miterlimit:10;">
    <g transform="matrix(1,0,0,1,-16.0927,-411.494)">
        <g transform="matrix(1,0,0,1,0.399711,243.369)">
            <path d="M527.299,320.142L542.391,320.142L542.391,337.698L527.299,337.698L527.299,320.142ZM532.809,294.197L542.795,294.197L542.795,301.715L532.809,301.715L532.809,294.197ZM532.809,279.155L542.795,279.155L542.795,287.093L532.809,287.093L532.809,279.155ZM517.78,272.095L517.78,279.155L525.667,279.155L525.667,287.093L516.894,287.093L516.894,294.197L525.667,294.197L525.667,301.715L517.729,301.715L517.729,308.816L523.265,308.816L514.491,320.71L519.31,324.836C519.497,324.992 520.236,323.625 520.236,323.857L520.236,344.697L549.479,344.697L549.479,313.038L526.646,313.038L529.925,308.816L549.479,308.816L549.479,294.197L551.987,294.197L551.987,287.093L549.479,287.093L549.479,272.095L517.78,272.095Z" style="fill-rule:nonzero;"/>
        </g>
        <g transform="matrix(1,0,0,1,0.399711,243.369)">
            <path d="M567.892,329.536L567.699,316.752L552.822,316.752L552.822,310.064L567.892,310.064L567.892,302.964L554.912,302.964L554.912,296.28L567.892,296.28L567.892,288.718L554.074,288.718L554.074,281.657L559.505,281.657L559.505,272.096L566.189,272.096L566.189,281.657L576.632,281.657L576.632,272.096L583.734,272.096L583.734,281.657L587.912,281.657L587.912,288.718L574.929,288.718L574.929,296.28L587.912,296.28L587.912,302.964L574.929,302.964L574.929,310.064L588.746,310.064L588.746,316.752L574.929,316.752L574.929,344.697L567.892,344.697L567.892,329.536Z" style="fill-rule:nonzero;"/>
        </g>
        <g transform="matrix(1,0,0,1,0.399711,243.369)">
            <path d="M632.609,344.697L632.609,337.594L641.805,337.594L641.805,279.171L630.104,279.171L630.104,272.096L648.901,272.096L648.901,344.697L632.609,344.697Z" style="fill-rule:nonzero;"/>
        </g>
        <g transform="matrix(1,0,0,1,0.399711,243.369)">
            <path d="M652.244,344.697L652.244,337.594L661.444,337.594L661.444,279.171L650.154,279.171L650.154,272.096L668.538,272.096L668.538,344.697L652.244,344.697Z" style="fill-rule:nonzero;"/>
        </g>
        <g transform="matrix(1,0,0,1,0.399711,243.369)">
            <path d="M597.937,344.697L597.937,337.594L607.544,337.594L607.544,315.125L592.924,315.125L592.924,308.022L607.544,308.022L607.544,301.753L592.924,301.753L592.924,294.655L607.544,294.655L607.544,287.969L592.924,287.969L592.924,280.889L597.518,280.889L597.518,272.095L604.203,272.095L604.203,280.889L615.094,280.889L615.094,272.095L622.137,272.095L622.137,280.889L629.684,280.889L629.684,287.969L614.227,287.969L614.227,294.655L629.684,294.655L629.684,301.753L614.227,301.753L614.227,308.022L629.684,308.022L629.684,315.125L614.227,315.125L614.227,344.697L597.937,344.697Z" style="fill-rule:nonzero;"/>
        </g>
        <g transform="matrix(1,0,0,1,0.399711,243.369)">
            <rect x="633.028" y="308.858" width="7.102" height="5.848"/>
        </g>
        <g transform="matrix(1,0,0,1,0.399711,243.369)">
            <rect x="653.083" y="308.858" width="6.683" height="5.848"/>
        </g>
        <g transform="matrix(1,0,0,1,0.399711,243.369)">
            <rect x="633.028" y="295.908" width="7.102" height="5.845"/>
        </g>
        <g transform="matrix(1,0,0,1,0.399711,243.369)">
            <rect x="653.083" y="295.908" width="6.683" height="5.845"/>
        </g>
        <g transform="matrix(1,0,0,1,0.399711,243.369)">
            <path d="M519.818,264.158L519.818,257.471L551.15,257.471L551.15,241.184L516.476,241.184L516.476,234.078L551.15,234.078L551.15,228.646L516.476,228.646L516.476,221.547L551.15,221.547L551.15,213.611L515.223,213.611L515.223,206.508L547.599,206.511L579.556,206.511L579.556,191.051L586.656,191.051L586.656,213.611L557.833,213.611L557.833,221.547L587.077,221.547L587.077,228.646L557.833,228.646L557.833,234.078L587.077,234.078L587.077,241.184L557.833,241.184L557.833,264.158L519.818,264.158Z" style="fill-rule:nonzero;"/>
        </g>
        <g transform="matrix(1,0,0,1,0.399711,243.369)">
            <rect x="601.696" y="191.051" width="6.686" height="73.107"/>
        </g>
        <g transform="matrix(1,0,0,1,0.399711,243.369)">
            <path d="M628.849,244.53L658.096,244.53L658.096,257.058L628.849,257.058L628.849,244.53ZM622.166,237.843L622.166,263.747L665.068,263.747L665.068,237.843L622.166,237.843Z" style="fill-rule:nonzero;"/>
        </g>
        <g transform="matrix(1,0,0,1,0.399711,243.369)">
            <rect x="592.088" y="208.179" width="7.102" height="25.064"/>
        </g>
        <g transform="matrix(1,0,0,1,0.399711,243.369)">
            <rect x="610.472" y="208.179" width="7.098" height="25.064"/>
        </g>
        <g transform="matrix(1,0,0,1,0.399711,243.369)">
            <path d="M643.434,209.764L657.677,209.764L657.677,226.567L643.434,226.567L643.434,209.764ZM621.33,191.051L621.33,197.737L636.369,197.737L636.369,202.752L622.166,202.752L622.166,209.764L636.369,209.764L636.369,226.567L620.913,226.567L620.913,233.247L667.704,233.247L667.704,226.567L664.779,226.567L664.779,202.752L643.434,202.752L643.434,197.737L665.199,197.737L665.199,191.051L621.33,191.051Z" style="fill-rule:nonzero;"/>
        </g>
        <g transform="matrix(1,0,0,1,0.399711,243.369)">
            <path d="M676.57,226.13L711.439,226.13L711.439,222.855L676.57,222.855L676.57,226.13ZM676.57,192.417L676.57,210.913L708.164,210.913L708.164,222.848L711.439,222.848L711.439,207.636L679.845,207.636L679.845,195.692L711.439,195.692L711.439,192.417L676.57,192.417Z" style="fill-rule:nonzero;"/>
        </g>
        <g transform="matrix(1,0,0,1,0.399711,243.369)">
            <path d="M713.497,192.418L713.497,226.131L716.772,226.131L716.772,210.913L731.125,210.913L731.125,226.131L734.398,226.131L734.398,207.636L716.772,207.636L716.772,192.418L713.497,192.418Z" style="fill-rule:nonzero;"/>
        </g>
        <g transform="matrix(1,0,0,1,0.399711,243.369)">
            <path d="M739.721,211.084L754.092,211.084L754.092,222.85L739.721,222.85L739.721,211.084ZM736.442,207.805L736.442,226.13L757.37,226.13L757.37,207.805L736.442,207.805Z" style="fill-rule:nonzero;"/>
        </g>
        <g transform="matrix(1,0,0,1,0.399711,243.369)">
            <path d="M759.239,192.416L759.239,195.691L775.037,195.691L775.037,226.13L778.31,226.13L778.31,195.691L794.108,195.691L794.108,192.416L759.239,192.416Z" style="fill-rule:nonzero;"/>
        </g>
        <g transform="matrix(1,0,0,1,0.399711,243.369)">
            <path d="M800.56,209.217L817.845,209.217L817.845,221.838L800.56,221.838L800.56,209.217ZM796.615,192.069L796.615,196.014L817.845,196.014L817.845,205.272L796.615,205.272L796.615,225.782L821.788,225.782L821.788,192.069L796.615,192.069Z" style="fill-rule:nonzero;"/>
        </g>
        <g transform="matrix(1,0,0,1,0.399711,243.369)">
            <path d="M828.362,209.9L846.44,209.9L846.44,221.472L828.362,221.472L828.362,209.9ZM846.44,202.166L846.44,205.776L824.237,205.776L824.237,225.598L846.44,225.598L846.44,239.916L824.237,239.916L824.237,244.04L850.567,244.04L850.567,202.166L846.44,202.166Z" style="fill-rule:nonzero;"/>
        </g>
        <g transform="matrix(1,0,0,1,0.399711,243.369)">
            <path d="M856.593,210.738L870.963,210.738L870.963,222.503L856.593,222.503L856.593,210.738ZM853.313,207.458L853.313,225.782L874.24,225.782L874.24,207.458L853.313,207.458Z" style="fill-rule:nonzero;"/>
        </g>
        <g transform="matrix(1,0,0,1,0.399711,243.369)">
            <path d="M877.148,206.798L877.148,225.781L880.836,225.781L880.836,210.487L887.086,210.487L887.086,225.781L890.773,225.781L890.773,210.487L896.995,210.487L896.995,225.781L900.681,225.781L900.681,210.487L900.689,210.487L900.689,206.798L877.148,206.798Z" style="fill-rule:nonzero;"/>
        </g>
        <g transform="matrix(1,0,0,1,0.399711,243.369)">
            <path d="M929.53,203.049L929.53,225.781L933.108,225.781L933.108,208.521L941.435,208.521L941.435,204.944L933.108,204.944L933.108,203.049L929.53,203.049Z" style="fill-rule:nonzero;"/>
        </g>
        <g transform="matrix(1,0,0,1,0.399711,243.369)">
            <path d="M903.202,206.423L903.202,225.781L927.208,225.781L927.208,206.423L923.446,206.423L923.446,222.021L906.963,222.021L906.963,206.423L903.202,206.423Z" style="fill-rule:nonzero;"/>
        </g>
        <g transform="matrix(1,0,0,1,0.399711,243.369)">
            <path d="M947.37,209.217L964.653,209.214L964.653,221.836L947.37,221.836L947.37,209.217ZM943.426,192.069L943.426,196.014L964.653,196.014L964.653,205.272L943.426,205.272L943.426,225.781L968.599,225.781L968.599,192.069L943.426,192.069Z" style="fill-rule:nonzero;"/>
        </g>
        <g transform="matrix(0.990804,0,0,0.990804,6.19007,4.53984)">
            <g transform="matrix(1.23285,0,0,1.23285,-157.282,185.54)">
                <path d="M682.88,250.597C682.346,250.251 681.577,249.953 680.588,249.953C678.343,249.953 677.433,251.303 677.433,252.606C677.433,253.595 677.857,254.348 678.987,255.055L681.028,256.373C681.907,256.939 682.331,257.535 682.331,258.21C682.331,259.168 681.546,260.063 680.023,260.063C678.861,260.063 677.998,259.576 677.448,259.105L677.448,260.235C678.029,260.581 678.924,260.942 680.039,260.942C682.174,260.942 683.304,259.623 683.304,258.179C683.304,257.096 682.849,256.358 681.546,255.541L679.473,254.207C678.736,253.72 678.406,253.234 678.406,252.574C678.406,251.523 679.254,250.832 680.541,250.832C681.483,250.832 682.283,251.193 682.88,251.695L682.88,250.597Z" style="fill-rule:nonzero;"/>
                <path d="M686.082,253.234L685.188,253.234L685.188,260.785L686.082,260.785L686.082,253.234ZM684.968,250.753C684.968,251.13 685.266,251.413 685.627,251.413C686.02,251.413 686.302,251.13 686.302,250.753C686.302,250.392 686.02,250.094 685.627,250.094C685.266,250.094 684.968,250.392 684.968,250.753Z" style="fill-rule:nonzero;"/>
                <path d="M689.332,253.234L688.437,253.234L688.437,260.785L689.332,260.785L689.332,256.216C689.363,254.882 690.18,253.956 691.545,253.956C692.943,253.956 693.775,254.929 693.775,256.311L693.775,260.785L694.654,260.785L694.654,256.154C694.654,254.364 693.523,253.077 691.734,253.077C690.556,253.077 689.74,253.658 689.332,254.552L689.332,253.234Z" style="fill-rule:nonzero;"/>
                <path d="M702.456,259.34C701.922,259.78 701.168,260.063 700.352,260.063C698.657,260.063 697.338,258.713 697.338,257.001C697.338,255.306 698.657,253.956 700.352,253.956C701.184,253.956 701.922,254.239 702.456,254.694L702.456,253.658C701.891,253.297 701.121,253.077 700.352,253.077C698.107,253.077 696.412,254.788 696.412,257.001C696.412,259.231 698.107,260.942 700.352,260.942C701.121,260.942 701.891,260.706 702.456,260.329L702.456,259.34Z" style="fill-rule:nonzero;"/>
                <path d="M711.074,257.394C711.106,257.268 711.121,257.033 711.121,256.829C711.121,254.725 709.567,253.077 707.416,253.077C705.266,253.077 703.633,254.788 703.633,257.001C703.633,259.262 705.297,260.942 707.464,260.942C708.672,260.942 709.677,260.486 710.305,260.047L710.305,259.042C709.693,259.56 708.609,260.11 707.511,260.11C705.909,260.11 704.701,258.964 704.559,257.394L711.074,257.394ZM707.416,253.877C708.971,253.877 710.226,254.976 710.242,256.64L704.544,256.64C704.638,255.086 705.831,253.877 707.416,253.877Z" style="fill-rule:nonzero;"/>
                <path d="M716.082,260.785L722.173,260.785L722.173,259.937L719.802,259.937L719.802,250.11L716.302,250.11L716.302,250.958L718.892,250.958L718.892,259.937L716.082,259.937L716.082,260.785Z" style="fill-rule:nonzero;"/>
                <path d="M724.983,260.785L726.066,260.785L729.347,255.903C729.786,255.243 730.069,254.49 730.069,253.611C730.069,251.538 728.483,249.953 726.396,249.953C724.323,249.953 722.738,251.538 722.738,253.611C722.738,255.73 724.371,257.284 726.396,257.284C726.741,257.284 727.118,257.237 727.463,257.143L724.983,260.785ZM723.68,253.611C723.68,252.072 724.857,250.863 726.396,250.863C727.95,250.863 729.127,252.072 729.127,253.611C729.127,255.165 727.95,256.373 726.396,256.373C724.857,256.373 723.68,255.165 723.68,253.611Z" style="fill-rule:nonzero;"/>
                <path d="M733.585,260.785L734.669,260.785L737.95,255.903C738.389,255.243 738.672,254.49 738.672,253.611C738.672,251.538 737.086,249.953 734.998,249.953C732.926,249.953 731.341,251.538 731.341,253.611C731.341,255.73 732.973,257.284 734.998,257.284C735.344,257.284 735.72,257.237 736.066,257.143L733.585,260.785ZM732.282,253.611C732.282,252.072 733.46,250.863 734.998,250.863C736.552,250.863 737.73,252.072 737.73,253.611C737.73,255.165 736.552,256.373 734.998,256.373C733.46,256.373 732.282,255.165 732.282,253.611Z" style="fill-rule:nonzero;"/>
                <path d="M746.16,250.958L746.16,250.11L741.544,250.11L740.948,255.118L742.376,255.118C744.025,255.118 745.296,255.95 745.296,257.519C745.296,259.074 744.119,260.031 742.706,260.031C741.544,260.031 740.728,259.482 740.053,258.838L740.053,260.031C740.681,260.486 741.56,260.942 742.738,260.942C744.621,260.942 746.254,259.733 746.254,257.519C746.254,255.526 744.763,254.286 742.533,254.286L741.906,254.286L742.345,250.958L746.16,250.958Z" style="fill-rule:nonzero;"/>
                <path d="M751.654,250.848C753.24,250.848 754.229,251.994 754.229,253.485L754.229,257.41C754.229,258.901 753.24,260.047 751.654,260.047C750.084,260.047 749.095,258.901 749.095,257.41L749.095,253.485C749.095,251.994 750.084,250.848 751.654,250.848ZM751.654,249.953C749.645,249.953 748.185,251.444 748.185,253.454L748.185,257.441C748.185,259.435 749.645,260.942 751.654,260.942C753.664,260.942 755.139,259.435 755.139,257.441L755.139,253.454C755.139,251.444 753.664,249.953 751.654,249.953Z" style="fill-rule:nonzero;"/>
                <path d="M762.219,250.895L762.219,250.11L756.756,250.11L756.756,250.958L761.277,250.958L757.258,260.785L758.31,260.785L762.219,250.895Z" style="fill-rule:nonzero;"/>
                <path d="M763.208,260.785L768.844,260.785L768.844,259.937L764.307,259.937L767.447,255.981C768.122,255.102 768.828,254.223 768.828,252.779C768.828,251.115 767.666,249.953 765.845,249.953C764.919,249.953 763.993,250.361 763.412,250.91L763.412,251.994C764.04,251.319 764.841,250.863 765.814,250.863C767.054,250.863 767.902,251.648 767.902,252.873C767.902,253.925 767.337,254.694 766.662,255.541L763.208,259.953L763.208,260.785Z" style="fill-rule:nonzero;"/>
                <path d="M774.26,250.848C775.845,250.848 776.834,251.994 776.834,253.485L776.834,257.41C776.834,258.901 775.845,260.047 774.26,260.047C772.69,260.047 771.701,258.901 771.701,257.41L771.701,253.485C771.701,251.994 772.69,250.848 774.26,250.848ZM774.26,249.953C772.25,249.953 770.79,251.444 770.79,253.454L770.79,257.441C770.79,259.435 772.25,260.942 774.26,260.942C776.269,260.942 777.745,259.435 777.745,257.441L777.745,253.454C777.745,251.444 776.269,249.953 774.26,249.953Z" style="fill-rule:nonzero;"/>
            </g>
            <g transform="matrix(1.23285,0,0,1.23285,-157.282,180.762)">
                <path d="M683.32,276.67L683.32,275.823L678.971,275.823L678.971,271.38L683.634,271.38L683.634,270.532L678.061,270.532L678.061,281.207L678.971,281.207L678.971,276.67L683.32,276.67Z" style="fill-rule:nonzero;"/>
                <path d="M686.412,273.656L685.517,273.656L685.517,281.207L686.412,281.207L686.412,276.639C686.444,275.305 687.009,274.378 688.296,274.378C688.563,274.378 688.877,274.441 689.112,274.535L689.112,273.578C688.892,273.531 688.673,273.499 688.437,273.499C687.433,273.499 686.757,274.017 686.412,274.787L686.412,273.656Z" style="fill-rule:nonzero;"/>
                <path d="M690.038,277.424C690.038,279.653 691.75,281.364 693.963,281.364C696.192,281.364 697.888,279.653 697.888,277.424C697.888,275.211 696.192,273.499 693.963,273.499C691.75,273.499 690.038,275.211 690.038,277.424ZM690.965,277.424C690.965,275.729 692.268,274.378 693.963,274.378C695.674,274.378 696.977,275.729 696.977,277.424C696.977,279.135 695.674,280.485 693.963,280.485C692.268,280.485 690.965,279.135 690.965,277.424Z" style="fill-rule:nonzero;"/>
                <path d="M700.619,273.656L699.724,273.656L699.724,281.207L700.619,281.207L700.619,276.404C700.65,275.085 701.467,274.378 702.613,274.378C703.743,274.378 704.575,275.116 704.575,276.513L704.575,281.207L705.47,281.207L705.47,276.513C705.47,275.132 706.318,274.378 707.464,274.378C708.609,274.378 709.441,275.116 709.441,276.513L709.441,281.207L710.336,281.207L710.336,276.341C710.336,274.551 709.175,273.499 707.636,273.499C706.459,273.499 705.627,274.112 705.281,275.163C704.905,274.096 703.947,273.499 702.785,273.499C701.765,273.499 701.027,273.97 700.619,274.771L700.619,273.656Z" style="fill-rule:nonzero;"/>
                <path d="M716.725,281.207L717.636,281.207L717.636,277.597L719.237,275.634L722.408,281.207L723.507,281.207L719.849,274.897L723.35,270.532L722.236,270.532L717.636,276.215L717.636,270.532L716.725,270.532L716.725,281.207Z" style="fill-rule:nonzero;"/>
                <path d="M725.077,274.991C725.705,274.583 726.396,274.331 727.165,274.331C728.122,274.331 729.111,274.881 729.111,276.262L729.111,277.361C728.735,276.812 727.903,276.294 726.976,276.294C725.422,276.294 724.245,277.393 724.245,278.821C724.245,280.234 725.328,281.364 726.961,281.364C727.903,281.364 728.703,280.909 729.111,280.25L729.111,281.207L730.006,281.207L730.006,276.262C730.006,274.3 728.766,273.499 727.228,273.499C726.364,273.499 725.642,273.751 725.077,274.065L725.077,274.991ZM725.155,278.821C725.155,277.848 726.035,277.032 727.118,277.032C728.17,277.032 729.111,277.848 729.111,278.821C729.111,279.826 728.201,280.626 727.118,280.626C726.066,280.626 725.155,279.826 725.155,278.821Z" style="fill-rule:nonzero;"/>
                <path d="M733.177,273.656L732.282,273.656L732.282,281.207L733.177,281.207L733.177,276.639C733.209,275.305 734.025,274.378 735.391,274.378C736.788,274.378 737.62,275.352 737.62,276.733L737.62,281.207L738.499,281.207L738.499,276.576C738.499,274.787 737.369,273.499 735.579,273.499C734.402,273.499 733.585,274.08 733.177,274.975L733.177,273.656Z" style="fill-rule:nonzero;"/>
                <path d="M740.948,274.991C741.576,274.583 742.267,274.331 743.036,274.331C743.993,274.331 744.982,274.881 744.982,276.262L744.982,277.361C744.606,276.812 743.774,276.294 742.847,276.294C741.293,276.294 740.116,277.393 740.116,278.821C740.116,280.234 741.199,281.364 742.832,281.364C743.774,281.364 744.574,280.909 744.982,280.25L744.982,281.207L745.877,281.207L745.877,276.262C745.877,274.3 744.637,273.499 743.099,273.499C742.235,273.499 741.513,273.751 740.948,274.065L740.948,274.991ZM741.026,278.821C741.026,277.848 741.906,277.032 742.989,277.032C744.04,277.032 744.982,277.848 744.982,278.821C744.982,279.826 744.072,280.626 742.989,280.626C741.937,280.626 741.026,279.826 741.026,278.821Z" style="fill-rule:nonzero;"/>
                <path d="M752.376,274.441L752.376,273.656L747.698,273.656L747.698,274.441L751.324,274.441L747.526,280.422L747.526,281.207L752.376,281.207L752.376,280.438L748.577,280.438L752.376,274.441Z" style="fill-rule:nonzero;"/>
                <path d="M754.354,274.991C754.982,274.583 755.673,274.331 756.442,274.331C757.4,274.331 758.389,274.881 758.389,276.262L758.389,277.361C758.012,276.812 757.18,276.294 756.254,276.294C754.7,276.294 753.522,277.393 753.522,278.821C753.522,280.234 754.605,281.364 756.238,281.364C757.18,281.364 757.981,280.909 758.389,280.25L758.389,281.207L759.284,281.207L759.284,276.262C759.284,274.3 758.043,273.499 756.505,273.499C755.642,273.499 754.919,273.751 754.354,274.065L754.354,274.991ZM754.433,278.821C754.433,277.848 755.312,277.032 756.395,277.032C757.447,277.032 758.389,277.848 758.389,278.821C758.389,279.826 757.478,280.626 756.395,280.626C755.343,280.626 754.433,279.826 754.433,278.821Z" style="fill-rule:nonzero;"/>
                <path d="M760.775,273.656L763.145,281.207L764.119,281.207L766.222,275.587L768.608,281.207L769.566,281.207L771.952,273.656L770.994,273.656L769.032,280.077L766.316,273.656L765.374,273.656L765.751,274.551L763.679,280.077L761.732,273.656L760.775,273.656Z" style="fill-rule:nonzero;"/>
                <path d="M773.695,274.991C774.322,274.583 775.013,274.331 775.782,274.331C776.74,274.331 777.729,274.881 777.729,276.262L777.729,277.361C777.352,276.812 776.52,276.294 775.594,276.294C774.04,276.294 772.863,277.393 772.863,278.821C772.863,280.234 773.946,281.364 775.578,281.364C776.52,281.364 777.321,280.909 777.729,280.25L777.729,281.207L778.624,281.207L778.624,276.262C778.624,274.3 777.384,273.499 775.845,273.499C774.982,273.499 774.26,273.751 773.695,274.065L773.695,274.991ZM773.773,278.821C773.773,277.848 774.652,277.032 775.735,277.032C776.787,277.032 777.729,277.848 777.729,278.821C777.729,279.826 776.818,280.626 775.735,280.626C774.684,280.626 773.773,279.826 773.773,278.821Z" style="fill-rule:nonzero;"/>
                <path d="M781.575,283.374L782.329,279.889L781.292,279.889L780.774,283.374L781.575,283.374Z" style="fill-rule:nonzero;"/>
                <rect x="788.812" y="270.532" width="0.91" height="10.675"/>
                <path d="M796.174,273.939C795.751,273.703 795.154,273.499 794.416,273.499C792.815,273.499 791.999,274.378 791.999,275.477C791.999,276.184 792.328,276.749 793.113,277.22L794.62,278.146C795.311,278.554 795.547,278.9 795.547,279.355C795.547,280.061 794.966,280.564 793.961,280.564C793.098,280.564 792.438,280.187 792.014,279.81L792.014,280.862C792.454,281.097 793.145,281.364 793.961,281.364C795.452,281.364 796.473,280.626 796.473,279.339C796.473,278.68 796.19,278.052 795.185,277.44L793.726,276.561C793.192,276.231 792.925,275.964 792.925,275.477C792.925,274.802 793.459,274.316 794.401,274.316C795.091,274.316 795.672,274.567 796.174,274.959L796.174,273.939Z" style="fill-rule:nonzero;"/>
                <path d="M799.22,270.375L798.325,270.375L798.325,281.207L799.22,281.207L799.22,276.639C799.251,275.305 800.068,274.378 801.433,274.378C802.831,274.378 803.663,275.352 803.663,276.733L803.663,281.207L804.542,281.207L804.542,276.576C804.542,274.787 803.411,273.499 801.622,273.499C800.444,273.499 799.644,274.08 799.22,274.975L799.22,270.375Z" style="fill-rule:nonzero;"/>
                <path d="M807.713,273.656L806.818,273.656L806.818,281.207L807.713,281.207L807.713,273.656ZM806.598,271.176C806.598,271.553 806.896,271.835 807.257,271.835C807.65,271.835 807.932,271.553 807.932,271.176C807.932,270.815 807.65,270.517 807.257,270.517C806.896,270.517 806.598,270.815 806.598,271.176Z" style="fill-rule:nonzero;"/>
                <path d="M810.067,281.207L810.962,281.207L810.962,278.805L812.312,277.283L814.636,281.207L815.703,281.207L812.956,276.67L815.593,273.656L814.51,273.656L810.962,277.628L810.962,270.375L810.067,270.375L810.067,281.207Z" style="fill-rule:nonzero;"/>
                <path d="M817.257,274.991C817.885,274.583 818.576,274.331 819.345,274.331C820.303,274.331 821.292,274.881 821.292,276.262L821.292,277.361C820.915,276.812 820.083,276.294 819.157,276.294C817.603,276.294 816.425,277.393 816.425,278.821C816.425,280.234 817.508,281.364 819.141,281.364C820.083,281.364 820.884,280.909 821.292,280.25L821.292,281.207L822.187,281.207L822.187,276.262C822.187,274.3 820.946,273.499 819.408,273.499C818.545,273.499 817.822,273.751 817.257,274.065L817.257,274.991ZM817.336,278.821C817.336,277.848 818.215,277.032 819.298,277.032C820.35,277.032 821.292,277.848 821.292,278.821C821.292,279.826 820.381,280.626 819.298,280.626C818.246,280.626 817.336,279.826 817.336,278.821Z" style="fill-rule:nonzero;"/>
                <path d="M823.678,273.656L826.048,281.207L827.022,281.207L829.125,275.587L831.511,281.207L832.469,281.207L834.855,273.656L833.897,273.656L831.935,280.077L829.219,273.656L828.277,273.656L828.654,274.551L826.582,280.077L824.635,273.656L823.678,273.656Z" style="fill-rule:nonzero;"/>
                <path d="M836.598,274.991C837.225,274.583 837.916,274.331 838.685,274.331C839.643,274.331 840.632,274.881 840.632,276.262L840.632,277.361C840.255,276.812 839.423,276.294 838.497,276.294C836.943,276.294 835.766,277.393 835.766,278.821C835.766,280.234 836.849,281.364 838.481,281.364C839.423,281.364 840.224,280.909 840.632,280.25L840.632,281.207L841.527,281.207L841.527,276.262C841.527,274.3 840.287,273.499 838.748,273.499C837.885,273.499 837.163,273.751 836.598,274.065L836.598,274.991ZM836.676,278.821C836.676,277.848 837.555,277.032 838.638,277.032C839.69,277.032 840.632,277.848 840.632,278.821C840.632,279.826 839.721,280.626 838.638,280.626C837.587,280.626 836.676,279.826 836.676,278.821Z" style="fill-rule:nonzero;"/>
                <path d="M844.478,283.374L845.232,279.889L844.195,279.889L843.677,283.374L844.478,283.374Z" style="fill-rule:nonzero;"/>
                <path d="M854.776,270.532L854.776,278.177C854.776,279.747 853.881,280.485 852.657,280.485C851.746,280.485 851.118,280.077 850.569,279.559L850.569,280.658C850.946,280.972 851.793,281.364 852.704,281.364C854.651,281.364 855.687,280.25 855.687,278.193L855.687,270.532L854.776,270.532Z" style="fill-rule:nonzero;"/>
                <path d="M858.575,281.207L859.486,281.207L859.486,276.749L861.464,276.749C863.394,276.749 864.745,275.619 864.745,273.656C864.745,271.678 863.394,270.532 861.464,270.532L858.575,270.532L858.575,281.207ZM863.787,273.656C863.787,275.211 862.782,275.901 861.464,275.901L859.486,275.901L859.486,271.38L861.464,271.38C862.782,271.38 863.787,272.118 863.787,273.656Z" style="fill-rule:nonzero;"/>
            </g>
            <g transform="matrix(1.05786,0,0,1.23285,-38.8902,175.884)">
                <path d="M687.308,299.856C686.412,300.5 685.186,300.892 683.832,300.892C680.814,300.892 678.545,298.883 678.545,296.292C678.545,293.702 680.814,291.693 683.832,291.693C685.186,291.693 686.412,292.085 687.308,292.745L687.308,291.646C686.339,291.112 685.131,290.798 683.832,290.798C680.192,290.798 677.429,293.168 677.429,296.292C677.429,299.416 680.192,301.787 683.832,301.787C685.131,301.787 686.339,301.473 687.308,300.939L687.308,299.856Z" style="fill-rule:nonzero;"/>
                <rect x="689.467" y="295.853" width="4.482" height="0.832"/>
                <path d="M702.585,291.442C701.963,291.096 701.066,290.798 699.914,290.798C697.298,290.798 696.236,292.148 696.236,293.451C696.236,294.44 696.73,295.194 698.048,295.9L700.426,297.219C701.451,297.784 701.945,298.38 701.945,299.055C701.945,300.013 701.03,300.908 699.255,300.908C697.901,300.908 696.895,300.421 696.255,299.95L696.255,301.08C696.932,301.426 697.975,301.787 699.273,301.787C701.762,301.787 703.079,300.468 703.079,299.024C703.079,297.941 702.548,297.203 701.03,296.387L698.615,295.052C697.755,294.566 697.371,294.079 697.371,293.42C697.371,292.368 698.359,291.677 699.859,291.677C700.957,291.677 701.89,292.038 702.585,292.541L702.585,291.442Z" style="fill-rule:nonzero;"/>
                <path d="M704.67,297.847C704.67,300.076 706.665,301.787 709.244,301.787C711.842,301.787 713.818,300.076 713.818,297.847C713.818,295.633 711.842,293.922 709.244,293.922C706.665,293.922 704.67,295.633 704.67,297.847ZM705.75,297.847C705.75,296.151 707.268,294.801 709.244,294.801C711.238,294.801 712.757,296.151 712.757,297.847C712.757,299.558 711.238,300.908 709.244,300.908C707.268,300.908 705.75,299.558 705.75,297.847Z" style="fill-rule:nonzero;"/>
                <path d="M722.087,301.63L723.13,301.63L723.13,294.079L722.087,294.079L722.087,298.663C722.032,299.997 721.081,300.908 719.508,300.908C717.88,300.908 716.928,299.934 716.928,298.553L716.928,294.079L715.885,294.079L715.885,298.71C715.885,300.5 717.203,301.787 719.288,301.787C720.679,301.787 721.612,301.206 722.087,300.327L722.087,301.63Z" style="fill-rule:nonzero;"/>
                <path d="M726.954,294.079L725.911,294.079L725.911,301.63L726.954,301.63L726.954,297.062C726.99,295.727 727.942,294.801 729.533,294.801C731.162,294.801 732.131,295.774 732.131,297.156L732.131,301.63L733.156,301.63L733.156,296.999C733.156,295.209 731.839,293.922 729.753,293.922C728.381,293.922 727.43,294.503 726.954,295.398L726.954,294.079Z" style="fill-rule:nonzero;"/>
                <path d="M743.328,301.63L744.371,301.63L744.371,290.798L743.328,290.798L743.328,295.869C742.669,294.707 741.352,293.922 739.687,293.922C737.126,293.922 735.205,295.633 735.205,297.847C735.205,300.076 737.126,301.787 739.687,301.787C741.352,301.787 742.669,301.018 743.328,299.856L743.328,301.63ZM743.328,297.847C743.328,299.558 741.809,300.908 739.815,300.908C737.821,300.908 736.303,299.558 736.303,297.847C736.303,296.151 737.821,294.801 739.815,294.801C741.809,294.801 743.328,296.151 743.328,297.847Z" style="fill-rule:nonzero;"/>
                <path d="M760.928,299.856C760.031,300.5 758.806,300.892 757.452,300.892C754.433,300.892 752.164,298.883 752.164,296.292C752.164,293.702 754.433,291.693 757.452,291.693C758.806,291.693 760.031,292.085 760.928,292.745L760.928,291.646C759.958,291.112 758.751,290.798 757.452,290.798C753.811,290.798 751.048,293.168 751.048,296.292C751.048,299.416 753.811,301.787 757.452,301.787C758.751,301.787 759.958,301.473 760.928,300.939L760.928,299.856Z" style="fill-rule:nonzero;"/>
                <path d="M764.239,294.079L763.196,294.079L763.196,301.63L764.239,301.63L764.239,297.062C764.276,295.727 764.934,294.801 766.435,294.801C766.746,294.801 767.111,294.864 767.386,294.958L767.386,294C767.13,293.953 766.874,293.922 766.599,293.922C765.428,293.922 764.642,294.44 764.239,295.209L764.239,294.079Z" style="fill-rule:nonzero;"/>
                <path d="M777.137,298.239C777.174,298.113 777.192,297.878 777.192,297.674C777.192,295.57 775.381,293.922 772.874,293.922C770.368,293.922 768.465,295.633 768.465,297.847C768.465,300.107 770.405,301.787 772.929,301.787C774.338,301.787 775.509,301.332 776.241,300.892L776.241,299.887C775.527,300.405 774.265,300.955 772.984,300.955C771.118,300.955 769.709,299.809 769.545,298.239L777.137,298.239ZM772.874,294.723C774.686,294.723 776.149,295.821 776.168,297.485L769.526,297.485C769.636,295.931 771.027,294.723 772.874,294.723Z" style="fill-rule:nonzero;"/>
                <path d="M779.369,295.413C780.101,295.005 780.906,294.754 781.802,294.754C782.918,294.754 784.071,295.303 784.071,296.685L784.071,297.784C783.632,297.234 782.662,296.716 781.583,296.716C779.772,296.716 778.4,297.815 778.4,299.244C778.4,300.657 779.662,301.787 781.565,301.787C782.662,301.787 783.595,301.332 784.071,300.672L784.071,301.63L785.114,301.63L785.114,296.685C785.114,294.723 783.668,293.922 781.876,293.922C780.869,293.922 780.028,294.173 779.369,294.487L779.369,295.413ZM779.461,299.244C779.461,298.27 780.485,297.454 781.748,297.454C782.973,297.454 784.071,298.27 784.071,299.244C784.071,300.248 783.01,301.049 781.748,301.049C780.522,301.049 779.461,300.248 779.461,299.244Z" style="fill-rule:nonzero;"/>
                <path d="M789.523,301.63L789.523,294.864L791.371,294.864L791.371,294.079L789.523,294.079L789.523,291.865L788.517,292.117L788.517,294.079L786.687,294.079L786.687,294.864L788.48,294.864L788.48,301.63L789.523,301.63Z" style="fill-rule:nonzero;"/>
                <path d="M794.042,294.079L792.999,294.079L792.999,301.63L794.042,301.63L794.042,294.079ZM792.743,291.599C792.743,291.975 793.09,292.258 793.511,292.258C793.969,292.258 794.298,291.975 794.298,291.599C794.298,291.238 793.969,290.939 793.511,290.939C793.09,290.939 792.743,291.238 792.743,291.599Z" style="fill-rule:nonzero;"/>
                <path d="M796.182,297.847C796.182,300.076 798.176,301.787 800.756,301.787C803.354,301.787 805.33,300.076 805.33,297.847C805.33,295.633 803.354,293.922 800.756,293.922C798.176,293.922 796.182,295.633 796.182,297.847ZM797.262,297.847C797.262,296.151 798.78,294.801 800.756,294.801C802.75,294.801 804.269,296.151 804.269,297.847C804.269,299.558 802.75,300.908 800.756,300.908C798.78,300.908 797.262,299.558 797.262,297.847Z" style="fill-rule:nonzero;"/>
                <path d="M808.513,294.079L807.47,294.079L807.47,301.63L808.513,301.63L808.513,297.062C808.55,295.727 809.501,294.801 811.093,294.801C812.721,294.801 813.691,295.774 813.691,297.156L813.691,301.63L814.715,301.63L814.715,296.999C814.715,295.209 813.398,293.922 811.312,293.922C809.94,293.922 808.989,294.503 808.513,295.398L808.513,294.079Z" style="fill-rule:nonzero;"/>
                <path d="M821.777,294.362C821.283,294.126 820.588,293.922 819.728,293.922C817.862,293.922 816.911,294.801 816.911,295.9C816.911,296.606 817.295,297.172 818.21,297.642L819.966,298.569C820.771,298.977 821.045,299.322 821.045,299.777C821.045,300.484 820.368,300.986 819.197,300.986C818.191,300.986 817.423,300.609 816.929,300.233L816.929,301.284C817.441,301.52 818.246,301.787 819.197,301.787C820.935,301.787 822.125,301.049 822.125,299.762C822.125,299.102 821.795,298.474 820.624,297.862L818.923,296.983C818.301,296.653 817.99,296.387 817.99,295.9C817.99,295.225 818.612,294.738 819.71,294.738C820.515,294.738 821.192,294.989 821.777,295.382L821.777,294.362Z" style="fill-rule:nonzero;"/>
                <path d="M835.224,297.093L835.224,296.245L830.156,296.245L830.156,291.803L835.59,291.803L835.59,290.955L829.095,290.955L829.095,301.63L830.156,301.63L830.156,297.093L835.224,297.093Z" style="fill-rule:nonzero;"/>
                <path d="M837.181,297.847C837.181,300.076 839.176,301.787 841.755,301.787C844.353,301.787 846.329,300.076 846.329,297.847C846.329,295.633 844.353,293.922 841.755,293.922C839.176,293.922 837.181,295.633 837.181,297.847ZM838.261,297.847C838.261,296.151 839.779,294.801 841.755,294.801C843.749,294.801 845.268,296.151 845.268,297.847C845.268,299.558 843.749,300.908 841.755,300.908C839.779,300.908 838.261,299.558 838.261,297.847Z" style="fill-rule:nonzero;"/>
                <path d="M854.598,301.63L855.641,301.63L855.641,294.079L854.598,294.079L854.598,298.663C854.543,299.997 853.592,300.908 852.019,300.908C850.391,300.908 849.439,299.934 849.439,298.553L849.439,294.079L848.396,294.079L848.396,298.71C848.396,300.5 849.714,301.787 851.799,301.787C853.19,301.787 854.123,301.206 854.598,300.327L854.598,301.63Z" style="fill-rule:nonzero;"/>
                <path d="M859.465,294.079L858.422,294.079L858.422,301.63L859.465,301.63L859.465,297.062C859.501,295.727 860.453,294.801 862.044,294.801C863.673,294.801 864.642,295.774 864.642,297.156L864.642,301.63L865.667,301.63L865.667,296.999C865.667,295.209 864.35,293.922 862.264,293.922C860.892,293.922 859.941,294.503 859.465,295.398L859.465,294.079Z" style="fill-rule:nonzero;"/>
                <path d="M875.839,301.63L876.882,301.63L876.882,290.798L875.839,290.798L875.839,295.869C875.18,294.707 873.863,293.922 872.198,293.922C869.637,293.922 867.716,295.633 867.716,297.847C867.716,300.076 869.637,301.787 872.198,301.787C873.863,301.787 875.18,301.018 875.839,299.856L875.839,301.63ZM875.839,297.847C875.839,299.558 874.32,300.908 872.326,300.908C870.332,300.908 868.814,299.558 868.814,297.847C868.814,296.151 870.332,294.801 872.326,294.801C874.32,294.801 875.839,296.151 875.839,297.847Z" style="fill-rule:nonzero;"/>
                <path d="M887.694,298.239C887.731,298.113 887.749,297.878 887.749,297.674C887.749,295.57 885.938,293.922 883.431,293.922C880.925,293.922 879.022,295.633 879.022,297.847C879.022,300.107 880.962,301.787 883.486,301.787C884.895,301.787 886.066,301.332 886.798,300.892L886.798,299.887C886.084,300.405 884.822,300.955 883.541,300.955C881.675,300.955 880.266,299.809 880.102,298.239L887.694,298.239ZM883.431,294.723C885.243,294.723 886.706,295.821 886.724,297.485L880.083,297.485C880.193,295.931 881.584,294.723 883.431,294.723Z" style="fill-rule:nonzero;"/>
                <path d="M890.768,294.079L889.725,294.079L889.725,301.63L890.768,301.63L890.768,297.062C890.804,295.727 891.463,294.801 892.963,294.801C893.274,294.801 893.64,294.864 893.914,294.958L893.914,294C893.658,293.953 893.402,293.922 893.128,293.922C891.957,293.922 891.17,294.44 890.768,295.209L890.768,294.079Z" style="fill-rule:nonzero;"/>
                <path d="M900.245,295.413C900.976,295.005 901.781,294.754 902.678,294.754C903.794,294.754 904.946,295.303 904.946,296.685L904.946,297.784C904.507,297.234 903.538,296.716 902.458,296.716C900.647,296.716 899.275,297.815 899.275,299.244C899.275,300.657 900.537,301.787 902.44,301.787C903.538,301.787 904.471,301.332 904.946,300.672L904.946,301.63L905.989,301.63L905.989,296.685C905.989,294.723 904.544,293.922 902.751,293.922C901.745,293.922 900.903,294.173 900.245,294.487L900.245,295.413ZM900.336,299.244C900.336,298.27 901.361,297.454 902.623,297.454C903.849,297.454 904.946,298.27 904.946,299.244C904.946,300.248 903.885,301.049 902.623,301.049C901.397,301.049 900.336,300.248 900.336,299.244Z" style="fill-rule:nonzero;"/>
                <path d="M909.685,294.079L908.642,294.079L908.642,301.63L909.685,301.63L909.685,297.062C909.721,295.727 910.673,294.801 912.264,294.801C913.893,294.801 914.862,295.774 914.862,297.156L914.862,301.63L915.887,301.63L915.887,296.999C915.887,295.209 914.57,293.922 912.484,293.922C911.112,293.922 910.16,294.503 909.685,295.398L909.685,294.079Z" style="fill-rule:nonzero;"/>
                <path d="M926.059,301.63L927.102,301.63L927.102,290.798L926.059,290.798L926.059,295.869C925.4,294.707 924.083,293.922 922.418,293.922C919.857,293.922 917.936,295.633 917.936,297.847C917.936,300.076 919.857,301.787 922.418,301.787C924.083,301.787 925.4,301.018 926.059,299.856L926.059,301.63ZM926.059,297.847C926.059,299.558 924.54,300.908 922.546,300.908C920.552,300.908 919.034,299.558 919.034,297.847C919.034,296.151 920.552,294.801 922.546,294.801C924.54,294.801 926.059,296.151 926.059,297.847Z" style="fill-rule:nonzero;"/>
                <path d="M943.659,299.856C942.762,300.5 941.536,300.892 940.183,300.892C937.164,300.892 934.895,298.883 934.895,296.292C934.895,293.702 937.164,291.693 940.183,291.693C941.536,291.693 942.762,292.085 943.659,292.745L943.659,291.646C942.689,291.112 941.482,290.798 940.183,290.798C936.542,290.798 933.779,293.168 933.779,296.292C933.779,299.416 936.542,301.787 940.183,301.787C941.482,301.787 942.689,301.473 943.659,300.939L943.659,299.856Z" style="fill-rule:nonzero;"/>
                <path d="M946.97,294.079L945.927,294.079L945.927,301.63L946.97,301.63L946.97,297.062C947.007,295.727 947.665,294.801 949.165,294.801C949.476,294.801 949.842,294.864 950.117,294.958L950.117,294C949.861,293.953 949.605,293.922 949.33,293.922C948.159,293.922 947.373,294.44 946.97,295.209L946.97,294.079Z" style="fill-rule:nonzero;"/>
                <path d="M959.868,298.239C959.905,298.113 959.923,297.878 959.923,297.674C959.923,295.57 958.112,293.922 955.605,293.922C953.099,293.922 951.196,295.633 951.196,297.847C951.196,300.107 953.135,301.787 955.66,301.787C957.069,301.787 958.24,301.332 958.972,300.892L958.972,299.887C958.258,300.405 956.996,300.955 955.715,300.955C953.849,300.955 952.44,299.809 952.276,298.239L959.868,298.239ZM955.605,294.723C957.417,294.723 958.88,295.821 958.898,297.485L952.257,297.485C952.367,295.931 953.758,294.723 955.605,294.723Z" style="fill-rule:nonzero;"/>
                <path d="M960.984,294.079L963.747,301.63L964.881,301.63L967.332,296.01L970.113,301.63L971.229,301.63L974.01,294.079L972.894,294.079L970.607,300.5L967.442,294.079L966.345,294.079L966.784,294.974L964.369,300.5L962.1,294.079L960.984,294.079Z" style="fill-rule:nonzero;"/>
                <path d="M976.626,303.796L977.504,300.311L976.297,300.311L975.693,303.796L976.626,303.796Z" style="fill-rule:nonzero;"/>
            </g>
            <g transform="matrix(1.23285,0,0,1.23285,-157.282,171.306)">
                <path d="M682.88,311.864C682.346,311.519 681.577,311.221 680.588,311.221C678.343,311.221 677.433,312.571 677.433,313.874C677.433,314.863 677.857,315.616 678.987,316.323L681.028,317.641C681.907,318.206 682.331,318.803 682.331,319.478C682.331,320.435 681.546,321.33 680.023,321.33C678.861,321.33 677.998,320.844 677.448,320.373L677.448,321.503C678.029,321.848 678.924,322.209 680.039,322.209C682.174,322.209 683.304,320.891 683.304,319.446C683.304,318.363 682.849,317.625 681.546,316.809L679.473,315.475C678.736,314.988 678.406,314.502 678.406,313.842C678.406,312.79 679.254,312.1 680.541,312.1C681.483,312.1 682.283,312.461 682.88,312.963L682.88,311.864Z" style="fill-rule:nonzero;"/>
                <path d="M684.67,318.269C684.67,320.498 686.381,322.209 688.594,322.209C690.823,322.209 692.519,320.498 692.519,318.269C692.519,316.056 690.823,314.345 688.594,314.345C686.381,314.345 684.67,316.056 684.67,318.269ZM685.596,318.269C685.596,316.574 686.899,315.224 688.594,315.224C690.305,315.224 691.608,316.574 691.608,318.269C691.608,319.98 690.305,321.33 688.594,321.33C686.899,321.33 685.596,319.98 685.596,318.269Z" style="fill-rule:nonzero;"/>
                <path d="M699.614,322.052L700.509,322.052L700.509,314.502L699.614,314.502L699.614,319.085C699.567,320.42 698.751,321.33 697.401,321.33C696.004,321.33 695.187,320.357 695.187,318.976L695.187,314.502L694.293,314.502L694.293,319.132C694.293,320.922 695.423,322.209 697.213,322.209C698.406,322.209 699.206,321.629 699.614,320.749L699.614,322.052Z" style="fill-rule:nonzero;"/>
                <path d="M703.79,314.502L702.895,314.502L702.895,322.052L703.79,322.052L703.79,317.484C703.822,316.15 704.638,315.224 706.004,315.224C707.401,315.224 708.233,316.197 708.233,317.578L708.233,322.052L709.112,322.052L709.112,317.421C709.112,315.632 707.982,314.345 706.192,314.345C705.015,314.345 704.198,314.925 703.79,315.82L703.79,314.502Z" style="fill-rule:nonzero;"/>
                <path d="M717.84,322.052L718.735,322.052L718.735,311.221L717.84,311.221L717.84,316.291C717.275,315.129 716.145,314.345 714.716,314.345C712.518,314.345 710.87,316.056 710.87,318.269C710.87,320.498 712.518,322.209 714.716,322.209C716.145,322.209 717.275,321.44 717.84,320.278L717.84,322.052ZM717.84,318.269C717.84,319.98 716.537,321.33 714.826,321.33C713.115,321.33 711.812,319.98 711.812,318.269C711.812,316.574 713.115,315.224 714.826,315.224C716.537,315.224 717.84,316.574 717.84,318.269Z" style="fill-rule:nonzero;"/>
                <path d="M727.322,322.052L728.342,322.052L731.545,313.654L734.417,322.052L735.438,322.052L738.64,311.378L737.604,311.378L734.873,320.828L731.702,311.378L730.744,311.378L731.105,312.429L727.871,320.828L725.14,311.378L724.104,311.378L727.322,322.052Z" style="fill-rule:nonzero;"/>
                <path d="M747.117,318.662C747.149,318.536 747.164,318.3 747.164,318.096C747.164,315.993 745.61,314.345 743.46,314.345C741.309,314.345 739.676,316.056 739.676,318.269C739.676,320.53 741.34,322.209 743.507,322.209C744.716,322.209 745.72,321.754 746.348,321.315L746.348,320.31C745.736,320.828 744.653,321.377 743.554,321.377C741.953,321.377 740.744,320.231 740.603,318.662L747.117,318.662ZM743.46,315.145C745.014,315.145 746.27,316.244 746.285,317.908L740.587,317.908C740.681,316.354 741.874,315.145 743.46,315.145Z" style="fill-rule:nonzero;"/>
                <path d="M749.033,315.836C749.66,315.428 750.351,315.177 751.12,315.177C752.078,315.177 753.067,315.726 753.067,317.107L753.067,318.206C752.69,317.657 751.858,317.139 750.932,317.139C749.378,317.139 748.201,318.238 748.201,319.666C748.201,321.079 749.284,322.209 750.916,322.209C751.858,322.209 752.659,321.754 753.067,321.095L753.067,322.052L753.962,322.052L753.962,317.107C753.962,315.145 752.722,314.345 751.183,314.345C750.32,314.345 749.598,314.596 749.033,314.91L749.033,315.836ZM749.111,319.666C749.111,318.693 749.99,317.877 751.073,317.877C752.125,317.877 753.067,318.693 753.067,319.666C753.067,320.671 752.156,321.472 751.073,321.472C750.022,321.472 749.111,320.671 749.111,319.666Z" style="fill-rule:nonzero;"/>
                <path d="M755.375,314.502L758.467,322.052L759.425,322.052L762.517,314.502L761.575,314.502L758.938,320.969L756.332,314.502L755.375,314.502Z" style="fill-rule:nonzero;"/>
                <path d="M770.932,318.662C770.963,318.536 770.979,318.3 770.979,318.096C770.979,315.993 769.425,314.345 767.274,314.345C765.123,314.345 763.491,316.056 763.491,318.269C763.491,320.53 765.155,322.209 767.321,322.209C768.53,322.209 769.534,321.754 770.162,321.315L770.162,320.31C769.55,320.828 768.467,321.377 767.368,321.377C765.767,321.377 764.558,320.231 764.417,318.662L770.932,318.662ZM767.274,315.145C768.828,315.145 770.084,316.244 770.1,317.908L764.401,317.908C764.495,316.354 765.688,315.145 767.274,315.145Z" style="fill-rule:nonzero;"/>
                <path d="M773.569,314.502L772.674,314.502L772.674,322.052L773.569,322.052L773.569,317.484C773.6,316.15 774.165,315.224 775.453,315.224C775.72,315.224 776.034,315.286 776.269,315.381L776.269,314.423C776.049,314.376 775.829,314.345 775.594,314.345C774.589,314.345 773.914,314.863 773.569,315.632L773.569,314.502Z" style="fill-rule:nonzero;"/>
                <path d="M778.388,324.219L779.142,320.734L778.106,320.734L777.588,324.219L778.388,324.219Z" style="fill-rule:nonzero;"/>
                <path d="M785.625,322.052L789.283,322.052C792.438,322.052 794.479,319.839 794.479,316.715C794.479,313.591 792.438,311.378 789.283,311.378L785.625,311.378L785.625,322.052ZM789.267,312.225C791.889,312.225 793.537,314.125 793.537,316.715C793.537,319.305 791.889,321.205 789.267,321.205L786.536,321.205L786.536,312.225L789.267,312.225Z" style="fill-rule:nonzero;"/>
                <path d="M803.349,318.662C803.38,318.536 803.396,318.3 803.396,318.096C803.396,315.993 801.842,314.345 799.691,314.345C797.54,314.345 795.908,316.056 795.908,318.269C795.908,320.53 797.572,322.209 799.738,322.209C800.947,322.209 801.951,321.754 802.579,321.315L802.579,320.31C801.967,320.828 800.884,321.377 799.785,321.377C798.184,321.377 796.975,320.231 796.834,318.662L803.349,318.662ZM799.691,315.145C801.245,315.145 802.501,316.244 802.517,317.908L796.818,317.908C796.912,316.354 798.105,315.145 799.691,315.145Z" style="fill-rule:nonzero;"/>
                <path d="M808.874,314.784C808.451,314.549 807.854,314.345 807.116,314.345C805.515,314.345 804.699,315.224 804.699,316.323C804.699,317.029 805.028,317.594 805.813,318.065L807.32,318.991C808.011,319.399 808.246,319.745 808.246,320.2C808.246,320.906 807.666,321.409 806.661,321.409C805.798,321.409 805.138,321.032 804.714,320.655L804.714,321.707C805.154,321.942 805.845,322.209 806.661,322.209C808.152,322.209 809.173,321.472 809.173,320.184C809.173,319.525 808.89,318.897 807.885,318.285L806.425,317.406C805.892,317.076 805.625,316.809 805.625,316.323C805.625,315.647 806.159,315.161 807.1,315.161C807.791,315.161 808.372,315.412 808.874,315.804L808.874,314.784Z" style="fill-rule:nonzero;"/>
                <path d="M811.92,314.502L811.025,314.502L811.025,322.052L811.92,322.052L811.92,314.502ZM810.805,312.021C810.805,312.398 811.104,312.681 811.465,312.681C811.857,312.681 812.14,312.398 812.14,312.021C812.14,311.66 811.857,311.362 811.465,311.362C811.104,311.362 810.805,311.66 810.805,312.021Z" style="fill-rule:nonzero;"/>
                <path d="M820.585,314.502L820.585,316.228C820.02,315.098 818.921,314.345 817.508,314.345C815.389,314.345 813.772,316.024 813.772,318.175C813.772,320.341 815.389,321.99 817.508,321.99C818.921,321.99 820.02,321.252 820.585,320.153L820.585,321.738C820.585,323.387 819.361,324.58 817.697,324.58C816.614,324.58 815.546,324.156 814.981,323.716L814.981,324.721C815.53,325.051 816.535,325.428 817.697,325.428C819.895,325.428 821.48,323.936 821.48,321.66L821.48,314.502L820.585,314.502ZM820.554,318.175C820.554,319.855 819.314,321.126 817.634,321.126C815.954,321.126 814.714,319.855 814.714,318.175C814.714,316.511 815.954,315.255 817.634,315.255C819.314,315.255 820.554,316.511 820.554,318.175Z" style="fill-rule:nonzero;"/>
                <path d="M824.761,314.502L823.866,314.502L823.866,322.052L824.761,322.052L824.761,317.484C824.792,316.15 825.609,315.224 826.974,315.224C828.372,315.224 829.204,316.197 829.204,317.578L829.204,322.052L830.083,322.052L830.083,317.421C830.083,315.632 828.952,314.345 827.163,314.345C825.985,314.345 825.169,314.925 824.761,315.82L824.761,314.502Z" style="fill-rule:nonzero;"/>
                <path d="M833.254,314.502L832.359,314.502L832.359,322.052L833.254,322.052L833.254,317.484C833.285,316.15 834.101,315.224 835.467,315.224C836.864,315.224 837.696,316.197 837.696,317.578L837.696,322.052L838.576,322.052L838.576,317.421C838.576,315.632 837.445,314.345 835.656,314.345C834.478,314.345 833.662,314.925 833.254,315.82L833.254,314.502Z" style="fill-rule:nonzero;"/>
                <path d="M847.775,318.662C847.806,318.536 847.822,318.3 847.822,318.096C847.822,315.993 846.268,314.345 844.117,314.345C841.966,314.345 840.334,316.056 840.334,318.269C840.334,320.53 841.998,322.209 844.164,322.209C845.373,322.209 846.378,321.754 847.005,321.315L847.005,320.31C846.393,320.828 845.31,321.377 844.211,321.377C842.61,321.377 841.401,320.231 841.26,318.662L847.775,318.662ZM844.117,315.145C845.671,315.145 846.927,316.244 846.943,317.908L841.244,317.908C841.338,316.354 842.531,315.145 844.117,315.145Z" style="fill-rule:nonzero;"/>
                <path d="M850.412,314.502L849.517,314.502L849.517,322.052L850.412,322.052L850.412,317.484C850.443,316.15 851.009,315.224 852.296,315.224C852.563,315.224 852.877,315.286 853.112,315.381L853.112,314.423C852.892,314.376 852.673,314.345 852.437,314.345C851.432,314.345 850.757,314.863 850.412,315.632L850.412,314.502Z" style="fill-rule:nonzero;"/>
                <path d="M855.231,324.219L855.985,320.734L854.949,320.734L854.431,324.219L855.231,324.219Z" style="fill-rule:nonzero;"/>
                <path d="M862.327,315.836C862.955,315.428 863.646,315.177 864.415,315.177C865.372,315.177 866.361,315.726 866.361,317.107L866.361,318.206C865.985,317.657 865.153,317.139 864.226,317.139C862.672,317.139 861.495,318.238 861.495,319.666C861.495,321.079 862.578,322.209 864.211,322.209C865.153,322.209 865.953,321.754 866.361,321.095L866.361,322.052L867.256,322.052L867.256,317.107C867.256,315.145 866.016,314.345 864.478,314.345C863.614,314.345 862.892,314.596 862.327,314.91L862.327,315.836ZM862.405,319.666C862.405,318.693 863.285,317.877 864.368,317.877C865.42,317.877 866.361,318.693 866.361,319.666C866.361,320.671 865.451,321.472 864.368,321.472C863.316,321.472 862.405,320.671 862.405,319.666Z" style="fill-rule:nonzero;"/>
                <path d="M870.427,314.502L869.533,314.502L869.533,322.052L870.427,322.052L870.427,317.484C870.459,316.15 871.275,315.224 872.641,315.224C874.038,315.224 874.87,316.197 874.87,317.578L874.87,322.052L875.749,322.052L875.749,317.421C875.749,315.632 874.619,314.345 872.829,314.345C871.652,314.345 870.835,314.925 870.427,315.82L870.427,314.502Z" style="fill-rule:nonzero;"/>
                <path d="M884.477,322.052L885.372,322.052L885.372,311.221L884.477,311.221L884.477,316.291C883.912,315.129 882.782,314.345 881.353,314.345C879.156,314.345 877.507,316.056 877.507,318.269C877.507,320.498 879.156,322.209 881.353,322.209C882.782,322.209 883.912,321.44 884.477,320.278L884.477,322.052ZM884.477,318.269C884.477,319.98 883.174,321.33 881.463,321.33C879.752,321.33 878.449,319.98 878.449,318.269C878.449,316.574 879.752,315.224 881.463,315.224C883.174,315.224 884.477,316.574 884.477,318.269Z" style="fill-rule:nonzero;"/>
                <path d="M887.523,321.44C887.523,321.88 887.852,322.209 888.292,322.209C888.731,322.209 889.061,321.88 889.061,321.44C889.061,321.001 888.731,320.671 888.292,320.671C887.852,320.671 887.523,321.001 887.523,321.44Z" style="fill-rule:nonzero;"/>
                <path d="M891.023,321.44C891.023,321.88 891.353,322.209 891.793,322.209C892.232,322.209 892.562,321.88 892.562,321.44C892.562,321.001 892.232,320.671 891.793,320.671C891.353,320.671 891.023,321.001 891.023,321.44Z" style="fill-rule:nonzero;"/>
                <path d="M894.524,321.44C894.524,321.88 894.854,322.209 895.293,322.209C895.733,322.209 896.063,321.88 896.063,321.44C896.063,321.001 895.733,320.671 895.293,320.671C894.854,320.671 894.524,321.001 894.524,321.44Z" style="fill-rule:nonzero;"/>
            </g>
            <g transform="matrix(1.23285,0,0,1.23285,-157.282,166.528)">
                <path d="M678.123,331.8L677.386,335.285L678.422,335.285L678.94,331.8L678.123,331.8ZM680.745,331.8L680.007,335.285L681.043,335.285L681.561,331.8L680.745,331.8Z" style="fill-rule:nonzero;"/>
                <path d="M688.657,332.287C688.123,331.941 687.354,331.643 686.365,331.643C684.12,331.643 683.21,332.993 683.21,334.296C683.21,335.285 683.634,336.039 684.764,336.745L686.805,338.064C687.684,338.629 688.108,339.225 688.108,339.9C688.108,340.858 687.323,341.753 685.8,341.753C684.638,341.753 683.775,341.266 683.225,340.795L683.225,341.925C683.806,342.271 684.701,342.632 685.816,342.632C687.951,342.632 689.081,341.313 689.081,339.869C689.081,338.786 688.626,338.048 687.323,337.232L685.25,335.897C684.513,335.411 684.183,334.924 684.183,334.265C684.183,333.213 685.031,332.522 686.318,332.522C687.26,332.522 688.06,332.883 688.657,333.386L688.657,332.287Z" style="fill-rule:nonzero;"/>
                <path d="M691.137,336.258C691.765,335.85 692.456,335.599 693.225,335.599C694.183,335.599 695.172,336.149 695.172,337.53L695.172,338.629C694.795,338.079 693.963,337.561 693.037,337.561C691.483,337.561 690.305,338.66 690.305,340.089C690.305,341.502 691.388,342.632 693.021,342.632C693.963,342.632 694.764,342.177 695.172,341.517L695.172,342.475L696.067,342.475L696.067,337.53C696.067,335.568 694.826,334.767 693.288,334.767C692.425,334.767 691.702,335.018 691.137,335.332L691.137,336.258ZM691.216,340.089C691.216,339.116 692.095,338.299 693.178,338.299C694.23,338.299 695.172,339.116 695.172,340.089C695.172,341.093 694.261,341.894 693.178,341.894C692.126,341.894 691.216,341.093 691.216,340.089Z" style="fill-rule:nonzero;"/>
                <path d="M699.85,342.475L699.85,335.709L701.435,335.709L701.435,334.924L699.85,334.924L699.85,332.711L698.986,332.962L698.986,334.924L697.417,334.924L697.417,335.709L698.955,335.709L698.955,342.475L699.85,342.475Z" style="fill-rule:nonzero;"/>
                <path d="M703.005,336.258C703.633,335.85 704.324,335.599 705.093,335.599C706.051,335.599 707.04,336.149 707.04,337.53L707.04,338.629C706.663,338.079 705.831,337.561 704.905,337.561C703.351,337.561 702.173,338.66 702.173,340.089C702.173,341.502 703.256,342.632 704.889,342.632C705.831,342.632 706.631,342.177 707.04,341.517L707.04,342.475L707.934,342.475L707.934,337.53C707.934,335.568 706.694,334.767 705.156,334.767C704.292,334.767 703.57,335.018 703.005,335.332L703.005,336.258ZM703.084,340.089C703.084,339.116 703.963,338.299 705.046,338.299C706.098,338.299 707.04,339.116 707.04,340.089C707.04,341.093 706.129,341.894 705.046,341.894C703.994,341.894 703.084,341.093 703.084,340.089Z" style="fill-rule:nonzero;"/>
                <path d="M711.106,334.924L710.211,334.924L710.211,342.475L711.106,342.475L711.106,337.907C711.137,336.572 711.953,335.646 713.319,335.646C714.716,335.646 715.548,336.619 715.548,338.001L715.548,342.475L716.427,342.475L716.427,337.844C716.427,336.054 715.297,334.767 713.507,334.767C712.33,334.767 711.514,335.348 711.106,336.243L711.106,334.924Z" style="fill-rule:nonzero;"/>
                <path d="M723.413,334.924L722.518,334.924L722.518,342.475L723.413,342.475L723.413,334.924ZM722.298,332.444C722.298,332.82 722.597,333.103 722.958,333.103C723.35,333.103 723.633,332.82 723.633,332.444C723.633,332.083 723.35,331.784 722.958,331.784C722.597,331.784 722.298,332.083 722.298,332.444Z" style="fill-rule:nonzero;"/>
                <path d="M726.662,334.924L725.768,334.924L725.768,342.475L726.662,342.475L726.662,337.907C726.694,336.572 727.51,335.646 728.876,335.646C730.273,335.646 731.105,336.619 731.105,338.001L731.105,342.475L731.984,342.475L731.984,337.844C731.984,336.054 730.854,334.767 729.064,334.767C727.887,334.767 727.071,335.348 726.662,336.243L726.662,334.924Z" style="fill-rule:nonzero;"/>
                <path d="M738.389,342.475L739.3,342.475L739.3,338.864L740.901,336.902L744.072,342.475L745.171,342.475L741.513,336.164L745.014,331.8L743.899,331.8L739.3,337.483L739.3,331.8L738.389,331.8L738.389,342.475Z" style="fill-rule:nonzero;"/>
                <path d="M746.741,336.258C747.369,335.85 748.059,335.599 748.828,335.599C749.786,335.599 750.775,336.149 750.775,337.53L750.775,338.629C750.398,338.079 749.566,337.561 748.64,337.561C747.086,337.561 745.909,338.66 745.909,340.089C745.909,341.502 746.992,342.632 748.624,342.632C749.566,342.632 750.367,342.177 750.775,341.517L750.775,342.475L751.67,342.475L751.67,337.53C751.67,335.568 750.43,334.767 748.891,334.767C748.028,334.767 747.306,335.018 746.741,335.332L746.741,336.258ZM746.819,340.089C746.819,339.116 747.698,338.299 748.781,338.299C749.833,338.299 750.775,339.116 750.775,340.089C750.775,341.093 749.865,341.894 748.781,341.894C747.73,341.894 746.819,341.093 746.819,340.089Z" style="fill-rule:nonzero;"/>
                <path d="M754.841,334.924L753.946,334.924L753.946,342.475L754.841,342.475L754.841,337.907C754.872,336.572 755.689,335.646 757.054,335.646C758.452,335.646 759.284,336.619 759.284,338.001L759.284,342.475L760.163,342.475L760.163,337.844C760.163,336.054 759.032,334.767 757.243,334.767C756.065,334.767 755.249,335.348 754.841,336.243L754.841,334.924Z" style="fill-rule:nonzero;"/>
                <path d="M762.612,336.258C763.239,335.85 763.93,335.599 764.699,335.599C765.657,335.599 766.646,336.149 766.646,337.53L766.646,338.629C766.269,338.079 765.437,337.561 764.511,337.561C762.957,337.561 761.78,338.66 761.78,340.089C761.78,341.502 762.863,342.632 764.495,342.632C765.437,342.632 766.238,342.177 766.646,341.517L766.646,342.475L767.541,342.475L767.541,337.53C767.541,335.568 766.301,334.767 764.762,334.767C763.899,334.767 763.177,335.018 762.612,335.332L762.612,336.258ZM762.69,340.089C762.69,339.116 763.569,338.299 764.652,338.299C765.704,338.299 766.646,339.116 766.646,340.089C766.646,341.093 765.736,341.894 764.652,341.894C763.601,341.894 762.69,341.093 762.69,340.089Z" style="fill-rule:nonzero;"/>
                <path d="M774.04,335.709L774.04,334.924L769.362,334.924L769.362,335.709L772.988,335.709L769.189,341.69L769.189,342.475L774.04,342.475L774.04,341.706L770.241,341.706L774.04,335.709Z" style="fill-rule:nonzero;"/>
                <path d="M776.018,336.258C776.646,335.85 777.337,335.599 778.106,335.599C779.063,335.599 780.052,336.149 780.052,337.53L780.052,338.629C779.676,338.079 778.844,337.561 777.917,337.561C776.363,337.561 775.186,338.66 775.186,340.089C775.186,341.502 776.269,342.632 777.902,342.632C778.844,342.632 779.644,342.177 780.052,341.517L780.052,342.475L780.947,342.475L780.947,337.53C780.947,335.568 779.707,334.767 778.169,334.767C777.305,334.767 776.583,335.018 776.018,335.332L776.018,336.258ZM776.096,340.089C776.096,339.116 776.975,338.299 778.059,338.299C779.11,338.299 780.052,339.116 780.052,340.089C780.052,341.093 779.142,341.894 778.059,341.894C777.007,341.894 776.096,341.093 776.096,340.089Z" style="fill-rule:nonzero;"/>
                <path d="M782.438,334.924L784.809,342.475L785.782,342.475L787.886,336.855L790.272,342.475L791.23,342.475L793.616,334.924L792.658,334.924L790.696,341.345L787.98,334.924L787.038,334.924L787.415,335.819L785.343,341.345L783.396,334.924L782.438,334.924Z" style="fill-rule:nonzero;"/>
                <path d="M795.358,336.258C795.986,335.85 796.677,335.599 797.446,335.599C798.404,335.599 799.393,336.149 799.393,337.53L799.393,338.629C799.016,338.079 798.184,337.561 797.258,337.561C795.704,337.561 794.526,338.66 794.526,340.089C794.526,341.502 795.609,342.632 797.242,342.632C798.184,342.632 798.984,342.177 799.393,341.517L799.393,342.475L800.287,342.475L800.287,337.53C800.287,335.568 799.047,334.767 797.509,334.767C796.645,334.767 795.923,335.018 795.358,335.332L795.358,336.258ZM795.437,340.089C795.437,339.116 796.316,338.299 797.399,338.299C798.451,338.299 799.393,339.116 799.393,340.089C799.393,341.093 798.482,341.894 797.399,341.894C796.347,341.894 795.437,341.093 795.437,340.089Z" style="fill-rule:nonzero;"/>
                <path d="M803.066,335.285L803.82,331.8L802.783,331.8L802.265,335.285L803.066,335.285ZM805.703,335.285L806.457,331.8L805.421,331.8L804.903,335.285L805.703,335.285Z" style="fill-rule:nonzero;"/>
            </g>
        </g>
    </g>
    <g transform="matrix(0.408648,0,0,0.408648,-133.978,-131.387)">
        <g transform="matrix(1,0,0,1,354.576,366.212)">
            <path d="M1184.15,400.03L392.075,400.03L392.075,400L0,400L0,0L400,0L400,0.03L1184.15,0.03L1184.15,400.03ZM1176.23,7.955L792.075,7.955L792.075,392.105L1176.23,392.105L1176.23,7.955ZM400,7.955L400,392.105L784.15,392.105L784.15,7.955L400,7.955ZM392.075,7.925L7.925,7.925L7.925,392.075L392.075,392.075L392.075,7.925Z"/>
        </g>
        <g transform="matrix(1.24162,0,0,1.24072,-301.267,-39.2187)">
            <g transform="matrix(1.19698,0,0,1.19698,670.798,473.499)">
                <path d="M0,-101.373L0.166,-101.373C5.2,-96.658 10.368,-92.077 15.454,-87.413C20.568,-92.051 25.776,-96.592 30.743,-101.373L31.077,-101.373C37.179,-95.119 42.878,-88.191 46.864,-79.437C50.809,-70.77 53.747,-60.272 52.016,-47.862C50.493,-36.938 45.807,-29.236 40.382,-21.769C34.969,-14.321 29.644,-7.122 24.429,0C22.337,-1.288 19.765,-2.095 16.95,-2.659L16.95,-21.106C16.95,-23.077 17.442,-25.938 15.288,-25.761C13.645,-25.623 13.958,-23.149 13.958,-20.941L13.958,-2.495C10.9,-2.228 8.573,-1.231 6.481,0C1.373,-6.913 -3.852,-14.312 -9.307,-21.769C-14.826,-29.316 -19.583,-36.936 -21.107,-47.696C-22.763,-59.397 -20.016,-70.568 -15.954,-79.27C-12.035,-87.667 -6.276,-95.418 0,-101.373"/>
            </g>
            <g transform="matrix(1.19698,0,0,1.19698,552.241,468.747)">
                <path d="M0,-2.842L0,-3.01C5.998,-6.542 12.187,-9.881 18.113,-13.48C15.105,-19.666 12.405,-26.163 9.472,-32.426C17.412,-36.523 27.04,-40.176 38.056,-41.068C50.039,-42.037 60.761,-39.387 68.968,-34.92C85.058,-26.155 92.931,-8.405 103.865,4.966C102.115,6.981 100.357,8.991 99.047,11.445C93.604,9.805 87.605,7.491 82.094,5.795C80.699,5.366 77.126,3.743 76.611,5.63C76.017,7.814 79.395,8.094 81.1,8.623C86.89,10.418 92.923,12.625 98.215,14.437C97.735,16.856 97.783,20.01 98.381,22.249C80.171,26.533 61.524,39.195 38.72,32.387C20.02,26.801 8.598,13.193 0,-2.842"/>
            </g>
            <g transform="matrix(1.19698,0,0,1.19698,826.352,464.887)">
                <path d="M0,0.215L0,0.546C-8.261,16.166 -20.618,30.475 -38.887,35.778C-49.514,38.86 -60.808,37.703 -70.629,34.614C-79.924,31.691 -89.259,28.431 -98.381,25.308C-97.788,23.042 -97.676,19.733 -98.381,17.496C-92.757,15.671 -86.892,13.932 -81.099,12.013C-79.645,11.534 -76.05,10.942 -76.611,8.855C-77.118,6.978 -80.593,8.582 -81.928,9.02C-87.833,10.95 -93.654,12.924 -99.214,14.67C-100.307,12.055 -102.2,10.235 -103.867,8.191C-92.839,-4.937 -85.094,-22.975 -69.133,-31.695C-61.009,-36.13 -50.073,-38.645 -38.222,-37.676C-32.641,-37.221 -27.447,-36.174 -22.601,-34.683C-17.826,-33.219 -13.277,-31.314 -9.639,-28.869C-12.346,-22.548 -15.345,-16.516 -17.949,-10.09C-12.077,-6.544 -6.021,-3.181 0,0.215"/>
            </g>
            <g transform="matrix(1.19698,0,0,1.19698,688.303,512.988)">
                <path d="M0,-33.489C4.854,-33.772 8.989,-31.645 11.3,-29.335C16.534,-24.102 16.533,-13.796 11.3,-8.562C2.452,0.283 -14.999,-5.902 -13.793,-20.363C-13.437,-24.63 -11.469,-27.737 -9.141,-29.835C-7,-31.76 -4.05,-33.254 0,-33.489"/>
            </g>
            <g transform="matrix(1.19698,0,0,1.19698,670.4,612.94)">
                <path d="M0,-96.388C1.468,-94.034 2.981,-91.724 4.819,-89.742C1.601,-85.829 -1.854,-80.581 -5.318,-75.782C-6.031,-74.792 -10.176,-70.633 -7.146,-69.965C-5.587,-69.621 -3.675,-73.012 -2.991,-73.952C0.495,-78.757 3.736,-83.653 7.313,-88.077C9.567,-87.119 11.602,-85.943 14.79,-85.917C14.356,-73.665 15.448,-61.675 14.624,-51.017C13.801,-40.376 10.375,-31.947 5.483,-25.093C-4.299,-11.388 -19.424,-3.49 -39.552,0C-41.069,-6.738 -42.382,-13.678 -43.873,-20.442C-50.835,-19.758 -57.542,-18.823 -64.647,-18.281C-68.543,-41.988 -61.927,-62.129 -50.354,-73.952C-44.183,-80.257 -36.593,-84.489 -27.754,-87.412C-18.863,-90.354 -9.349,-93.2 0,-96.388"/>
            </g>
            <g transform="matrix(1.19698,0,0,1.19698,707.996,612.94)">
                <path d="M0,-96.388C9.277,-93.224 18.592,-90.378 27.42,-87.412C36.483,-84.371 43.726,-80.413 50.188,-73.952C61.707,-62.432 68.819,-42.018 64.645,-18.115C57.839,-18.95 50.812,-19.571 44.038,-20.442C42.43,-13.798 41.125,-6.849 39.717,0C19.385,-3.277 4.481,-11.457 -5.318,-25.093C-10.137,-31.798 -14.011,-40.283 -14.626,-50.853C-15.25,-61.627 -14.161,-73.642 -14.626,-85.917C-11.583,-86.09 -9.17,-86.887 -7.313,-88.242C-3.724,-83.814 -0.634,-79.176 2.992,-74.117C3.578,-73.298 5.65,-69.868 6.98,-69.965C10.138,-70.187 6.661,-74.409 6.148,-75.116C2.625,-79.967 -1.144,-85.059 -4.653,-89.742C-2.926,-91.78 -1.229,-93.85 0,-96.388"/>
            </g>
            <g transform="matrix(0,-1.19698,-1.19698,0,689.297,339.274)">
                <ellipse cx="-124.224" cy="0.001" rx="124.308" ry="124.224" style="fill:none;stroke:black;stroke-width:3.29px;"/>
            </g>
        </g>
        <g transform="matrix(1.24148,0,0,1.24059,-618.1,93.9203)">
            <g transform="matrix(1.19698,0,0,1.19698,1236.23,380.884)">
                <path d="M0,-0.005C0,-11.151 9.035,-20.186 20.184,-20.186C31.33,-20.186 40.368,-11.151 40.368,-0.005C40.368,11.144 31.33,20.181 20.184,20.181C9.035,20.181 0,11.144 0,-0.005" style="fill-rule:nonzero;"/>
            </g>
            <g transform="matrix(1.19698,0,0,1.19698,1304.95,308.597)">
                <path d="M0,-20.34C0,-40.896 -16.664,-57.563 -37.224,-57.563C-57.781,-57.563 -74.447,-40.896 -74.448,-20.34C-74.447,-2.7 -62.174,12.064 -45.702,15.903L-45.746,15.903L-40.662,37.223L-33.781,37.223L-28.7,15.902L-28.74,15.902C-12.271,12.059 -0.001,-2.7 0,-20.34" style="fill-rule:nonzero;"/>
            </g>
            <g transform="matrix(1.19698,0,0,1.19698,1176.26,401.772)">
                <path d="M0,-71.883C-20.031,-76.507 -40.02,-64.02 -44.643,-43.987C-49.268,-23.956 -36.778,-3.969 -16.748,0.657C0.44,4.624 17.586,-4.016 25.031,-19.199L25.021,-19.157L46.942,-19.314L48.489,-26.016L28.855,-35.767L28.847,-35.728C28.81,-52.639 17.186,-67.915 0,-71.883" style="fill-rule:nonzero;"/>
            </g>
            <g transform="matrix(1.19698,0,0,1.19698,1170.4,476.928)">
                <path d="M0,-32.811C-11.195,-15.571 -6.295,7.484 10.946,18.679C28.187,29.878 51.242,24.976 62.439,7.734C72.044,-7.06 69.792,-26.125 58.069,-38.317L58.105,-38.292L65.457,-58.943L59.684,-62.689L43.81,-47.576L43.841,-47.552C27.938,-53.302 9.607,-47.603 0,-32.811" style="fill-rule:nonzero;"/>
            </g>
            <g transform="matrix(1.19698,0,0,1.19698,1344.52,401.769)">
                <path d="M0,-71.881C20.031,-76.507 40.021,-64.018 44.646,-43.985C49.27,-23.954 36.779,-3.966 16.748,0.659C-0.44,4.626 -17.587,-4.014 -25.032,-19.197L-25.022,-19.155L-46.94,-19.311L-48.489,-26.014L-28.855,-35.765L-28.847,-35.726C-28.809,-52.637 -17.186,-67.913 0,-71.881" style="fill-rule:nonzero;"/>
            </g>
            <g transform="matrix(1.19698,0,0,1.19698,1350.39,476.928)">
                <path d="M0,-32.811C11.197,-15.571 6.296,7.485 -10.946,18.679C-28.188,29.878 -51.24,24.976 -62.44,7.734C-72.045,-7.06 -69.79,-26.125 -58.068,-38.317L-58.105,-38.292L-65.456,-58.943L-59.686,-62.689L-43.809,-47.576L-43.843,-47.552C-27.938,-53.302 -9.606,-47.603 0,-32.811" style="fill-rule:nonzero;"/>
            </g>
            <g transform="matrix(1.19698,0,0,1.19698,1254.12,438.44)">
                <path d="M0,-24.922L10.474,-24.922L14.536,-6.746L5.236,0L-4.059,-6.746L0,-24.922Z" style="fill-rule:nonzero;"/>
            </g>
            <g transform="matrix(1.19698,0,0,1.19698,1232.34,409.734)">
                <path d="M0,-20.286L3.923,-10.573L-11.406,0L-21.146,-6.095L-18.373,-17.239L0,-20.286Z" style="fill-rule:nonzero;"/>
            </g>
            <g transform="matrix(1.19698,0,0,1.19698,1288.45,409.734)">
                <path d="M0,-20.286L-3.923,-10.573L11.408,0L21.149,-6.095L18.374,-17.239L0,-20.286Z" style="fill-rule:nonzero;"/>
            </g>
            <g transform="matrix(1.19698,0,0,1.19698,1248.04,342.829)">
                <path d="M0,10.229L-8.198,16.75L-22.691,5.053L-19.612,-6.015L-8.138,-6.521L0,10.229Z" style="fill-rule:nonzero;"/>
            </g>
            <g transform="matrix(1.19698,0,0,1.19698,1272.75,343.033)">
                <path d="M0,10.231L8.197,16.752L22.69,5.054L19.615,-6.015L8.14,-6.521L0,10.231Z" style="fill-rule:nonzero;"/>
            </g>
            <g transform="matrix(0,-1.19698,-1.19698,0,1260.39,232.029)">
                <ellipse cx="-124.224" cy="0.001" rx="124.308" ry="124.224" style="fill:none;stroke:black;stroke-width:3.29px;"/>
            </g>
        </g>
        <g transform="matrix(1.24064,0,0,1.24064,-473.34,222.465)">
            <g transform="matrix(0,-1.19698,-1.19698,0,1460.69,128.403)">
                <ellipse cx="-124.224" cy="0.001" rx="124.308" ry="124.224" style="fill:none;stroke:black;stroke-width:3.29px;"/>
            </g>
            <g transform="matrix(1.19698,0,0,1.19698,1331.64,276.154)">
                <path d="M0,-61.206C0,-61.206 -1.582,-20.734 35.526,0.704C72.074,21.821 107.643,0.842 107.643,0.842C107.643,0.842 108.017,-40.473 71.465,-61.587C34.358,-83.027 0.125,-61.42 0.125,-61.42" style="fill-rule:nonzero;stroke:white;stroke-width:1.45px;stroke-linecap:round;"/>
            </g>
            <g transform="matrix(1.19698,0,0,1.19698,1589.33,276.154)">
                <path d="M0,-61.206C0,-61.206 1.586,-20.734 -35.521,0.704C-72.072,21.821 -107.641,0.842 -107.641,0.842C-107.641,0.842 -108.013,-40.473 -71.464,-61.587C-34.352,-83.027 -0.123,-61.42 -0.123,-61.42" style="fill-rule:nonzero;stroke:white;stroke-width:1.45px;stroke-linecap:round;"/>
            </g>
            <g transform="matrix(1.19698,0,0,1.19698,1534.83,275.494)">
                <path d="M0,-106.253C0,-106.253 21.592,-71.999 0.169,-34.863C-20.935,1.71 -62.219,1.339 -62.219,1.339C-62.219,1.339 -83.181,-34.253 -62.082,-70.828C-40.66,-107.963 -0.217,-106.377 -0.217,-106.377" style="fill-rule:nonzero;stroke:white;stroke-width:1.45px;stroke-linecap:round;"/>
            </g>
            <g transform="matrix(1.19698,0,0,1.19698,1385.88,275.494)">
                <path d="M0,-106.253C0,-106.253 -21.594,-71.999 -0.168,-34.863C20.936,1.71 62.22,1.339 62.22,1.339C62.22,1.339 83.184,-34.253 62.084,-70.828C40.657,-107.963 0.215,-106.377 0.215,-106.377" style="fill-rule:nonzero;stroke:white;stroke-width:1.45px;stroke-linecap:round;"/>
            </g>
            <g transform="matrix(1.19698,0,0,1.19698,1589.33,278.037)">
                <path d="M0,61.209C0,61.209 1.586,20.739 -35.521,-0.703C-72.072,-21.817 -107.641,-0.839 -107.641,-0.839C-107.641,-0.839 -108.013,40.474 -71.464,61.589C-34.352,83.026 -0.123,61.424 -0.123,61.424" style="fill-rule:nonzero;stroke:white;stroke-width:1.45px;stroke-linecap:round;"/>
            </g>
            <g transform="matrix(1.19698,0,0,1.19698,1331.64,278.038)">
                <path d="M0,61.207C0,61.207 -1.582,20.737 35.526,-0.704C72.074,-21.818 107.643,-0.84 107.643,-0.84C107.643,-0.84 108.017,40.473 71.465,61.588C34.358,83.025 0.125,61.423 0.125,61.423" style="fill-rule:nonzero;stroke:white;stroke-width:1.45px;stroke-linecap:round;"/>
            </g>
            <g transform="matrix(1.19698,0,0,1.19698,1534.83,278.695)">
                <path d="M0,106.256C0,106.256 21.592,72.002 0.169,34.867C-20.935,-1.709 -62.219,-1.335 -62.219,-1.335C-62.219,-1.335 -83.181,34.257 -62.082,70.831C-40.66,107.965 -0.217,106.381 -0.217,106.381" style="fill-rule:nonzero;stroke:white;stroke-width:1.45px;stroke-linecap:round;"/>
            </g>
            <g transform="matrix(1.19698,0,0,1.19698,1609.18,276.95)">
                <path d="M0,0.246C0,0.246 -18.851,36.087 -61.702,36.087C-103.905,36.087 -124.225,0.123 -124.225,0.123C-124.225,0.123 -103.905,-35.841 -61.702,-35.841C-18.851,-35.841 0,-0.001 0,-0.001" style="fill-rule:nonzero;stroke:white;stroke-width:1.45px;stroke-linecap:round;"/>
            </g>
            <g transform="matrix(1.19698,0,0,1.19698,1385.88,278.695)">
                <path d="M0,106.256C0,106.256 -21.594,72.002 -0.168,34.867C20.936,-1.709 62.22,-1.335 62.22,-1.335C62.22,-1.335 83.184,34.257 62.084,70.831C40.657,107.965 0.215,106.381 0.215,106.381" style="fill-rule:nonzero;stroke:white;stroke-width:1.45px;stroke-linecap:round;"/>
            </g>
            <g transform="matrix(1.19698,0,0,1.19698,1460.63,425.889)">
                <path d="M0,-124.307C0,-124.307 35.817,-105.446 35.817,-62.565C35.817,-20.334 -0.123,0 -0.123,0C-0.123,0 -36.063,-20.334 -36.063,-62.565C-36.063,-105.446 -0.245,-124.307 -0.245,-124.307" style="fill-rule:nonzero;stroke:white;stroke-width:1.45px;stroke-linecap:round;"/>
            </g>
            <g transform="matrix(1.19698,0,0,1.19698,1311.79,276.95)">
                <path d="M0,0.246C0,0.246 18.853,36.087 61.701,36.087C103.906,36.087 124.225,0.123 124.225,0.123C124.225,0.123 103.906,-35.841 61.701,-35.841C18.853,-35.841 0,-0.001 0,-0.001" style="fill-rule:nonzero;stroke:white;stroke-width:1.45px;stroke-linecap:round;"/>
            </g>
            <g transform="matrix(1.19698,0,0,1.19698,1460.63,128.302)">
                <path d="M0,124.309C0,124.309 35.817,105.447 35.817,62.567C35.817,20.335 -0.123,0 -0.123,0C-0.123,0 -36.063,20.335 -36.063,62.567C-36.063,105.445 -0.245,124.309 -0.245,124.309" style="fill-rule:nonzero;stroke:white;stroke-width:1.45px;stroke-linecap:round;"/>
            </g>
            <g transform="matrix(0,-1.19698,-1.19698,0,1460.69,234.141)">
                <ellipse cx="-35.886" cy="0.001" rx="35.911" ry="35.886" style="fill:none;stroke:black;stroke-width:1.82px;"/>
            </g>
            <g transform="matrix(1.19698,0,0,1.19698,1547.01,277.095)">
                <path d="M0,0.002C0,39.857 -32.289,72.169 -72.12,72.169C-111.948,72.169 -144.237,39.857 -144.237,-0.001C-144.237,-39.858 -111.948,-72.167 -72.12,-72.167C-32.289,-72.167 0,-39.858 0,0.002" style="fill-rule:nonzero;"/>
            </g>
            <g transform="matrix(2.4896e-05,-1.19698,-1.19698,-2.4896e-05,1460.69,190.772)">
                <path d="M-72.118,-73.433C-31.561,-73.433 1.365,-40.528 1.365,0.001C1.365,40.53 -31.561,73.435 -72.119,73.435C-112.676,73.435 -145.602,40.53 -145.602,0.001C-145.602,-40.528 -112.676,-73.433 -72.118,-73.433ZM-72.118,-70.803C-111.223,-70.803 -142.972,-39.077 -142.972,0.001C-142.972,39.079 -111.223,70.805 -72.118,70.805C-33.014,70.805 -1.265,39.079 -1.265,0.001C-1.265,-39.077 -33.014,-70.803 -72.118,-70.803Z" style="fill:white;"/>
            </g>
            <g transform="matrix(1.19698,0,0,1.19698,1525.74,277.093)">
                <path d="M0,0.003C0,30.037 -24.333,54.387 -54.349,54.387C-84.363,54.387 -108.696,30.037 -108.696,0.003C-108.696,-30.033 -84.363,-54.384 -54.349,-54.384C-24.333,-54.384 0,-30.033 0,0.003" style="fill-rule:nonzero;"/>
            </g>
            <g transform="matrix(0,-1.19698,-1.19698,0,1460.69,212.042)">
                <path d="M-54.348,-55.924C-23.461,-55.924 1.615,-30.865 1.615,0.002C1.615,30.868 -23.461,55.927 -54.348,55.927C-85.235,55.927 -110.311,30.868 -110.311,0.002C-110.311,-30.865 -85.235,-55.924 -54.348,-55.924ZM-54.348,-52.769C-83.493,-52.769 -107.156,-29.123 -107.156,0.002C-107.156,29.126 -83.493,52.772 -54.348,52.772C-25.203,52.772 -1.54,29.126 -1.54,0.002C-1.54,-29.123 -25.203,-52.769 -54.348,-52.769Z" style="fill:white;"/>
            </g>
            <g transform="matrix(1.19698,0,0,1.19698,511.757,-483.23)">
                <path d="M789.813,593.694L795.397,593.694L795.397,592.419L789.813,592.419L789.813,593.694ZM795.396,590.882L789.812,590.882L789.812,592.122L795.396,592.122L795.396,590.882ZM795.272,590.586L795.667,590.09L796.731,590.871C796.657,590.957 796.446,591.067 796.201,591.117L796.201,595.268C796.201,595.849 796.075,596.245 794.913,596.382C794.913,595.762 794.441,595.663 793.638,595.603L793.638,595.428L795.138,595.428C795.334,595.428 795.396,595.403 795.396,595.255L795.396,593.992L789.813,593.992L789.813,596.098C789.813,596.098 789.728,596.394 789.022,596.394L789.022,590.188L789.9,590.586L795.272,590.586ZM797.265,588.518L798.326,589.286C798.229,589.459 798.096,589.546 797.746,589.546L786.967,589.546L786.879,589.247L792.188,589.247L792.188,588.059L788.391,588.059L788.303,587.763L792.188,587.763L792.188,586.636L787.709,586.636L787.623,586.337L792.188,586.337L792.188,584.902L793.574,585.025C793.563,585.223 793.427,585.298 792.994,585.359L792.994,586.337L796.052,586.337L796.607,585.618L797.685,586.375C797.598,586.549 797.451,586.636 797.104,586.636L792.994,586.636L792.994,587.763L795.471,587.763L796.014,587.08L797.041,587.799C796.941,587.985 796.819,588.059 796.474,588.059L792.994,588.059L792.994,589.247L796.682,589.247L797.265,588.518Z" style="fill:white;fill-rule:nonzero;"/>
            </g>
            <g transform="matrix(1.19698,0,0,1.19698,1493.64,229.648)">
                <path d="M0,3.23C-0.184,3.324 -0.345,3.331 -0.646,3.156L-4.259,1.071C-4.864,3.038 -4.742,5.498 -2.308,8.49L-2.408,8.588C-2.808,8.416 -3.128,8.402 -3.438,8.737C-5.604,5.684 -5.222,3.016 -4.471,0.946L-4.645,0.847C-6.32,2.912 -8.424,4.055 -12.569,3.391L-12.587,3.124C-8.872,3.468 -6.914,2.309 -5.395,0.415L-9.029,-1.683L-8.952,-1.986L-5.205,0.183C-4.552,-0.671 -3.979,-1.67 -3.347,-2.738L-7.636,-5.213L-7.552,-5.507L0.822,-0.671L1.751,-1.049L2.367,0.265C2.193,0.366 2.022,0.367 1.712,0.186L-2.555,-2.278C-3.192,-1.218 -3.792,-0.233 -4.453,0.616L-1.524,2.305L-0.614,1.934L0,3.23Z" style="fill:white;fill-rule:nonzero;"/>
            </g>
            <g transform="matrix(1.19698,0,0,1.19698,1500.88,252.382)">
                <path d="M0,-2.867L3.684,3.518L6.81,1.708L3.129,-4.674L0,-2.867ZM10.07,-0.174L6.39,-6.555L3.387,-4.822L7.069,1.56L10.07,-0.174ZM10.98,-0.355L10.819,1.125C10.656,1.091 10.439,0.941 10.239,0.714L3.284,4.734C3.263,4.746 2.876,4.669 2.58,4.154L3.426,3.665L-0.257,-2.716L-0.933,-2.327C-0.942,-2.32 -1.248,-2.229 -1.612,-2.861L6.607,-7.613L6.688,-6.631L7.802,-4.698C8.559,-4.85 9.553,-5.109 10.252,-5.329L10.6,-3.913C10.464,-3.876 10.352,-3.969 10.221,-4.223C9.587,-4.231 8.701,-4.302 7.957,-4.431L10.252,-0.452L10.98,-0.355Z" style="fill:white;fill-rule:nonzero;"/>
            </g>
            <g transform="matrix(1.19698,0,0,1.19698,511.757,-376.561)">
                <path d="M833.538,548.84L837.561,548.84L837.561,542.773L833.538,542.773L833.538,548.84ZM841.744,542.773L837.856,542.773L837.856,548.84L841.744,548.84L841.744,542.773ZM842.587,549.127L841.782,550.202C841.684,550.118 841.57,549.909 841.52,549.657L832.523,549.657C832.499,549.657 832.213,549.437 832.213,548.84L833.241,548.84L833.241,542.773L832.361,542.773C832.339,542.773 832.015,542.723 832.015,541.978L842.473,541.978L842.053,542.859L842.053,548.716L842.587,549.127Z" style="fill:white;fill-rule:nonzero;"/>
            </g>
            <g transform="matrix(1.19698,0,0,1.19698,1505.1,299.654)">
                <path d="M0,7.787L1.337,5.472L-1.996,3.547C-1.784,4.139 -1.063,5.372 -0.42,5.743L-0.028,5.066L0.251,5.173L-0.102,5.784L0.093,6.194L-0.739,6.544C-0.791,6.411 -0.733,6.16 -0.629,5.905C-1.103,5.635 -2.201,5.685 -2.989,6.06L0,7.787ZM2.586,7.321L3.815,8.032L5.178,5.672L3.945,4.96L2.586,7.321ZM1.762,7.732C1.686,7.687 1.715,7.318 1.855,7.074L1.933,6.942L2.328,7.173L2.817,6.323L1.597,5.619L0.319,7.829L0.554,8.39L-0.61,8.92C-0.653,8.796 -0.641,8.575 -0.564,8.347L-4.539,6.047C-5.078,5.742 -5.37,5.383 -4.956,4.439C-4.407,4.755 -4.159,4.566 -3.673,3.85L-3.521,3.936L-4.199,5.104C-4.283,5.254 -4.275,5.315 -4.137,5.398L-3.184,5.948C-3.211,5.773 -3.316,5.584 -3.484,5.431C-2.97,5.257 -2.13,5.241 -1.457,5.416C-1.886,4.811 -2.213,4.048 -2.273,3.385L-3.614,2.609C-3.668,2.578 -3.704,2.272 -3.512,1.936L-3.45,1.83L1.715,4.818L3.038,2.521L-0.443,0.508C-0.229,1.177 0.366,2.105 1.084,2.692L1.282,2.792L1.634,2.182L1.91,2.298L1.597,2.847L1.793,3.243L0.977,3.572C0.916,3.453 0.967,3.212 1.072,2.959C0.539,2.647 -0.565,2.627 -1.333,3.04L-1.438,2.952C-1.411,2.78 -1.531,2.541 -1.714,2.362C-1.229,2.214 -0.471,2.237 0.195,2.422C-0.268,1.886 -0.582,1.141 -0.641,0.526L-0.486,0.483L-1.891,-0.328C-1.901,-0.33 -2.094,-0.546 -1.768,-1.111L4.014,2.223L3.255,2.745L1.97,4.965L3.193,5.671L3.688,4.815L3.414,4.653C3.388,4.641 3.255,4.43 3.581,3.865L5.563,5.006L6.56,3.281L6.854,3.368L5.821,5.158L7.342,6.036L6.604,7.098C6.463,6.99 6.44,6.832 6.595,6.49L5.438,5.822L4.077,8.183L5.596,9.058L4.869,10.127C4.719,10.013 4.708,9.862 4.85,9.516L3.692,8.846L3.291,9.543L3.633,10.358L2.483,10.865C2.367,10.696 2.376,10.531 2.548,10.23L3.435,8.699L1.762,7.732ZM9.433,2.168C8.498,3.343 7.724,3.44 7.352,3.224C7.113,3.086 7.037,2.827 7.153,2.626C7.201,2.539 7.289,2.462 7.42,2.408C7.979,2.486 8.802,2.317 9.36,2.039L9.433,2.168ZM2.546,-1.654C2.48,-1.536 2.461,-1.502 2.624,-1.267C2.674,-1.179 2.9,-0.877 6.026,3.144L5.853,3.316C4.811,2.172 2.887,0.014 2.475,-0.391C2.196,-0.67 1.91,-0.92 1.641,-1.074C1.192,-1.335 0.559,-1.358 -0.232,-1.816C-0.414,-1.922 -1.103,-2.318 -0.772,-2.883C-0.664,-3.078 -0.397,-3.067 -0.038,-2.89C0.326,-2.609 0.67,-2.365 0.982,-2.187C2.075,-1.554 2.264,-1.804 2.585,-2.261L2.819,-2.127C2.615,-1.772 2.557,-1.646 2.557,-1.646L2.546,-1.654ZM6.985,0.238C6.165,1.339 5.449,1.438 5.097,1.235C4.859,1.099 4.771,0.833 4.889,0.628C4.947,0.533 5.031,0.454 5.165,0.402C5.666,0.52 6.415,0.382 6.91,0.123L6.985,0.238Z" style="fill:white;fill-rule:nonzero;"/>
            </g>
            <g transform="matrix(1.19698,0,0,1.19698,1480.75,323.387)">
                <path d="M0,0.478L-0.893,-1.122C-1.309,-1.025 -1.411,-1.025 -1.479,-1.143C-1.664,-1.464 -1.387,-1.781 -0.251,-2.438L2.793,-4.195C3.854,-4.805 4.26,-4.771 4.804,-3.826L7.014,0.001L7.852,-1.168L8.136,-1.075L7.175,0.282L9.087,3.596L7.885,4.16C7.807,3.978 7.856,3.863 8.189,3.597L6.678,0.981L5.55,2.563L7.482,5.921L6.305,6.474C6.232,6.299 6.286,6.172 6.602,5.947L5.052,3.265L3.986,4.766L4.01,5.542L2.729,5.58C2.736,5.418 2.85,5.196 3.056,5.005L0.978,1.404C0.706,0.93 0.627,0.473 1.446,-0.112C1.735,0.392 1.861,0.432 2.527,0.148L2.598,0.278L1.762,0.761C1.603,0.854 1.596,0.913 1.664,1.032L3.732,4.616L4.893,2.985L2.588,-1.002C2.581,-1.025 2.537,-1.316 3.118,-1.651L5.395,2.294L6.517,0.703L4.117,-3.458C3.856,-3.911 3.744,-3.931 3.177,-3.602L0.081,-1.812C-0.136,-1.69 -0.283,-1.574 -0.305,-1.363C-0.328,-1.162 -0.136,-0.457 0.108,0.416L0,0.478ZM9.859,0.031L7.713,-3.69C7.241,-3.247 6.728,-2.751 6.214,-2.254L6.08,-2.388C6.599,-3.148 7.327,-4.211 8.375,-5.588C8.336,-5.753 8.377,-5.904 8.457,-5.996L9.474,-5.323C9.202,-5.094 8.793,-4.714 8.296,-4.242L10.534,-0.359L11.8,-1.09L12.016,-0.871L10.685,-0.102L12.307,2.707L11.071,3.295C10.976,3.105 11.096,2.961 11.407,2.712L10.012,0.288L9.557,0.548L9.483,1.433L8.265,1.25C8.257,1.043 8.336,0.91 8.628,0.74L9.859,0.031Z" style="fill:white;fill-rule:nonzero;"/>
            </g>
            <g transform="matrix(1.19698,0,0,1.19698,1453.66,325.631)">
                <path d="M0,8.019C0.103,7.831 0.235,7.757 0.568,7.757L2.513,7.757C1.92,6.581 0.866,5.614 -0.16,5.132L-0.15,5.005C0.174,4.958 0.41,4.72 0.521,4.338C1.486,5.058 2.29,6.219 2.771,7.707L2.771,4.511C2.771,4.487 2.884,4.253 3.553,4.253L3.553,6.829C4.209,5.775 5.137,4.92 6.349,4.239L6.474,4.463C5.323,5.329 4.492,6.48 4.012,7.757L5.682,7.757L5.769,8.053L3.553,8.053L3.553,9.75L2.254,9.641C2.276,9.464 2.388,9.367 2.771,9.332L2.771,8.053L1.548,8.053L1.017,8.748L0,8.019ZM7.102,2.271C5.397,1.812 4.865,1.034 4.865,0.522C4.865,0.239 5.026,0.039 5.246,0.039C5.346,0.039 5.459,0.09 5.57,0.175C5.769,0.86 6.536,1.701 7.192,2.133L7.102,2.271ZM0.26,1.07L0.272,-0.64C-0.013,-0.75 -0.09,-0.8 -0.09,-0.938C-0.09,-1.246 0.16,-1.444 1.038,-1.444L2.685,-1.444C3.627,-1.444 3.728,-1.246 3.728,-0.381L3.728,3.309L7.911,3.309L7.911,2.259C7.911,0.944 8.267,-0.712 11.263,-1.731L11.374,-1.544C9.134,-0.48 8.699,0.882 8.699,2.259L8.699,4.016L7.761,3.61L3.851,3.61L3.466,4.089L2.475,3.297C2.562,3.199 2.712,3.137 2.935,3.112L2.935,-0.442C2.935,-0.712 2.922,-0.727 2.637,-0.727L1.1,-0.727C0.942,-0.727 0.842,-0.712 0.779,-0.554C0.682,-0.306 0.484,0.476 0.396,1.07L0.26,1.07ZM8.192,4.498C8.192,4.487 8.307,4.239 8.949,4.239L8.949,6.704C9.518,5.725 10.323,4.896 11.325,4.213L11.461,4.413C10.472,5.329 9.765,6.494 9.345,7.757L11.152,7.757L11.227,8.053L8.949,8.053L8.949,9.737L7.686,9.627C7.699,9.464 7.824,9.376 8.192,9.332L8.192,8.053L7.449,8.053L6.931,8.735L5.953,8.019C6.055,7.831 6.188,7.757 6.522,7.757L8.192,7.757L8.192,7.097C6.659,6.888 6.164,6.247 6.164,5.812C6.164,5.564 6.327,5.379 6.536,5.379C6.636,5.379 6.733,5.415 6.831,5.491C7.042,5.998 7.649,6.606 8.192,6.927L8.192,4.498Z" style="fill:white;fill-rule:nonzero;"/>
            </g>
            <g transform="matrix(1.19698,0,0,1.19698,1428.55,323.191)">
                <path d="M0,0.658L2.658,2.195L4.058,-0.234L1.398,-1.768L0,0.658ZM5.928,4.081L7.326,1.657L4.745,0.165L3.346,2.587L5.928,4.081ZM2.716,2.568C2.082,2.846 1.275,3.352 0.758,3.726L3.878,5.529C4.538,5.223 5.276,4.962 6.02,4.764L5.649,4.263L2.716,2.568ZM0.7,-3.773L1.676,-5.467C1.355,-5.78 1.244,-5.888 1.341,-6.048C1.541,-6.402 2.113,-6.376 3.956,-5.311L8.319,-2.788C9.551,-2.077 10.038,-1.454 9.499,-0.522L6.516,4.648C7.172,4.502 7.821,4.417 8.454,4.411L8.488,4.619C6.695,4.883 4.494,5.897 3.038,7.06L2.098,6.115C2.207,6.02 2.329,6.035 2.595,6.219C2.889,6.03 3.203,5.853 3.558,5.685L0.625,3.989L-0.094,4.191L-0.467,2.93C-0.355,2.91 -0.199,2.959 0.023,3.072C0.66,2.855 1.617,2.535 2.434,2.407L-0.044,0.975L-0.627,1.223L-1.179,0.003C-1.057,-0.04 -0.828,-0.036 -0.578,0.052L1.198,-3.03C1.209,-3.05 1.541,-3.155 2.036,-2.874L1.548,-2.024L7.475,1.402L8.823,-0.937C9.076,-1.38 8.721,-1.698 8.012,-2.108L3.629,-4.64C2.889,-5.067 2.555,-5.202 2.215,-5.014C1.935,-4.85 1.254,-4.196 0.815,-3.706L0.7,-3.773Z" style="fill:white;fill-rule:nonzero;"/>
            </g>
            <g transform="matrix(1.19698,0,0,1.19698,1414.5,306.494)">
                <path d="M0,-4.281L-1.008,-6.033L-1.973,-5.474L-0.967,-3.724L0,-4.281ZM-3.164,-4.787L-2.154,-3.037L-1.222,-3.579L-2.23,-5.323L-3.164,-4.787ZM1.368,-1.913L0.389,-3.606L-0.574,-3.047L0.404,-1.353L1.368,-1.913ZM-1.762,-2.361L-0.787,-0.666L0.146,-1.208L-0.832,-2.899L-1.762,-2.361ZM-0.714,4.165C-1.264,2.669 -0.933,1.907 -0.524,1.669C-0.289,1.533 -0.021,1.579 0.098,1.783C0.146,1.869 0.164,1.973 0.146,2.115C-0.26,2.573 -0.549,3.487 -0.568,4.166L-0.714,4.165ZM1.39,-0.137C1.51,-0.106 1.688,0.007 1.897,0.27L4.214,-1.066C4.602,-2.305 4.241,-3.2 3.179,-5.046C2.439,-6.321 1.439,-8.059 0.638,-9.341L0.801,-9.436C1.016,-9.157 1.297,-9.092 1.633,-9.228L3.83,-5.421C4.943,-3.492 5.203,-2.468 4.497,-1.044C5.188,-0.914 6.131,-0.643 6.685,-0.451C6.808,-0.535 6.908,-0.535 7.01,-0.48L6.462,0.48C6.084,0.222 5.432,-0.17 4.8,-0.52L2.132,1.023L2.972,2.481L2.719,2.685L1.939,1.334L1.146,1.219L1.39,-0.137ZM-2.939,2.165L-1.336,4.943L-1.558,5.155L-3.195,2.314L-4.302,2.951L-4.852,1.798C-4.697,1.721 -4.583,1.769 -4.35,2.077L-3.587,1.638L-5.207,-1.172L-6.313,-0.535L-6.864,-1.688C-6.696,-1.772 -6.605,-1.709 -6.377,-1.412L-5.605,-1.859L-6.455,-3.34L-7.363,-3.445L-7.232,-4.777C-7.033,-4.78 -6.901,-4.697 -6.728,-4.399L-5.348,-2.008L-4.66,-2.405C-4.532,-2.477 -4.216,-2.102 -4.072,-1.927L-3.475,-2.274L-4.502,-4.055L-5.336,-4.188L-5.249,-5.425C-5.035,-5.432 -4.898,-5.341 -4.73,-5.052L-3.215,-2.426L-2.412,-2.888L-3.365,-4.538L-3.94,-4.621L-3.831,-5.843C-3.708,-5.828 -3.529,-5.717 -3.392,-5.554L-1.068,-6.897C-1.034,-6.917 -0.705,-6.82 -0.442,-6.358L-0.75,-6.179L0.257,-4.431L1.113,-4.926L-0.073,-6.985L-0.916,-7.112L-0.826,-8.339C-0.61,-8.361 -0.472,-8.271 -0.306,-7.98L1.374,-5.073L2.303,-5.612C2.327,-5.627 2.608,-5.659 2.94,-5.079L1.762,-4.399L3.525,-1.339L3.313,-1.12L1.506,-4.25L0.648,-3.752L1.626,-2.059L1.817,-2.172C1.827,-2.175 2.093,-2.216 2.427,-1.635L-0.991,0.336L-1.074,-0.571L-2.023,-2.213L-2.826,-1.748L-1.156,1.149L-1.367,1.371L-3.083,-1.6L-3.982,-1.079L-4.276,-1.711L-4.952,-1.321L-3.331,1.489L-2.588,1.063C-2.571,1.048 -2.32,1.063 -1.997,1.621L-2.939,2.165Z" style="fill:white;fill-rule:nonzero;"/>
            </g>
            <g transform="matrix(1.19698,0,0,1.19698,511.757,-377.081)">
                <path d="M749.982,543.812L748.236,543.812L748.236,545.954L749.982,545.954L749.982,543.812ZM746.279,545.954L747.939,545.954L747.939,543.812L746.279,543.812L746.279,545.954ZM749.982,546.76L748.236,546.76L748.236,548.829L749.982,548.829L749.982,546.76ZM746.279,548.829L747.939,548.829L747.939,546.76L746.279,546.76L746.279,548.829ZM744.449,548.777L744.449,551.972L744.15,552.048L744.15,548.777L742.741,548.777L742.839,547.489C743.014,547.513 743.086,547.602 743.138,547.984L744.15,547.984L744.15,544.74L742.741,544.74L742.839,543.452C743.014,543.466 743.076,543.563 743.124,543.947L744.15,543.947L744.15,542.262L743.384,541.706L744.189,540.603C744.361,540.704 744.449,540.841 744.449,541.185L744.449,543.947L745.413,543.947C745.44,543.947 745.688,544.06 745.688,544.74L744.449,544.74L744.449,547.984L745.49,547.984C745.525,547.984 745.724,548.097 745.724,548.777L744.449,548.777ZM747.975,540.494C748.149,540.592 748.236,540.727 748.236,541.075L748.236,543.02L749.982,543.02L749.982,542.598L749.326,542.068L750.006,541.064C750.193,541.162 750.277,541.312 750.277,541.644L750.277,545.954L751.8,545.954L751.8,542.426L751.095,541.854L751.837,540.765C752.011,540.865 752.099,541.013 752.099,541.346L752.099,545.954L753.99,545.954C754.04,545.954 754.238,546.216 754.238,546.637L754.238,546.76L752.099,546.76L752.099,551.801L751.8,551.887L751.8,546.76L750.277,546.76L750.277,551.331L749.982,551.403L749.982,549.619L748.236,549.619L748.236,552.036L747.939,552.121L747.939,549.619L746.279,549.619L746.279,551.18L745.983,551.268L745.983,542.821L745.355,542.312L746.02,541.312C746.194,541.409 746.279,541.546 746.279,541.878L746.279,543.02L747.939,543.02L747.939,542.078L747.245,541.534L747.975,540.494Z" style="fill:white;fill-rule:nonzero;"/>
            </g>
            <g transform="matrix(1.19698,0,0,1.19698,1413.79,256.768)">
                <path d="M0,-10.208C-0.203,-10.425 -0.592,-10.79 -0.894,-11.065L-3.231,-7.01C-2.754,-6.747 -2.17,-6.197 -2.517,-5.595C-2.697,-5.284 -2.937,-5.339 -3.054,-5.405C-3.227,-5.504 -3.311,-5.711 -3.323,-5.932C-3.346,-6.317 -3.678,-6.882 -4.111,-7.118L-4.008,-7.303C-3.82,-7.25 -3.652,-7.195 -3.502,-7.135L-2.535,-8.811L-4.227,-9.788L-3.47,-10.882C-3.332,-10.772 -3.323,-10.639 -3.463,-10.274L-2.133,-9.508L-1.192,-11.139L-1.379,-11.803L-0.201,-12.138C-0.169,-12.021 -0.221,-11.879 -0.323,-11.679C-0.149,-11.309 0.074,-10.706 0.166,-10.322L0,-10.208ZM2.52,-6.82L5.027,-5.371C5.249,-5.628 5.449,-5.927 5.653,-6.282L6.698,-8.093L6.838,-8.014C6.744,-7.752 6.901,-7.505 7.175,-7.333L6.299,-5.82C5.449,-4.342 4.5,-3.686 2.46,-4.137C3.237,-3.43 3.869,-2.522 4.078,-1.244L3.811,-1.182C3.167,-3.112 1.388,-4.142 -0.139,-5.035L0.523,-6.013C0.647,-5.927 0.668,-5.813 0.527,-5.525C1.009,-5.218 1.548,-4.892 2.057,-4.484C3.105,-4.292 3.836,-4.397 4.425,-4.802L-0.246,-7.503L-1.547,-5.249L-1.845,-5.321L0.586,-9.539L0.253,-10.347L1.4,-10.871C1.517,-10.704 1.513,-10.547 1.338,-10.249L0.149,-8.187L2.263,-6.969L2.859,-8.009L2.499,-8.846L3.699,-9.384C3.804,-9.195 3.794,-9.029 3.632,-8.751L2.52,-6.82ZM-0.162,-2.619C0.87,-3.096 1.594,-3.035 2,-2.8C2.345,-2.601 2.457,-2.279 2.34,-2.076C2.284,-1.979 2.169,-1.904 2.013,-1.879C1.427,-2.231 0.467,-2.441 -0.188,-2.45L-0.162,-2.619ZM-4.031,-6.172C-3.969,-6.077 -3.979,-5.984 -4.048,-5.864C-4.08,-5.812 -4.118,-5.748 -4.181,-5.684C-3.648,-4.676 -2.99,-3.166 -2.507,-1.872C-2.226,-2.411 -1.901,-3.023 -1.572,-3.664C-1.953,-3.696 -2.361,-3.688 -2.674,-3.639L-2.691,-3.808C-1.601,-4.508 -0.841,-4.487 -0.446,-4.256C-0.169,-4.095 -0.07,-3.823 -0.18,-3.631C-0.235,-3.534 -0.334,-3.46 -0.498,-3.427C-0.712,-3.523 -0.985,-3.597 -1.285,-3.639C-1.37,-3.375 -1.471,-3.103 -1.582,-2.782L3.111,-0.068C3.167,-0.039 3.189,0.29 2.999,0.622L2.941,0.721L-1.85,-2.05L-2.317,-0.763C-2.216,-0.616 -2.209,-0.485 -2.25,-0.364L-3.254,-0.528C-3.118,-0.765 -2.913,-1.119 -2.684,-1.545C-3.367,-2.785 -4.339,-4.347 -5.095,-5.412L-4.031,-6.172ZM-0.731,-1.16C-0.625,-1.072 -0.606,-0.96 -0.735,-0.704C0.052,0.078 0.813,1.019 1.141,1.81L0.957,1.93C0.448,1.278 -0.527,0.388 -1.49,-0.341L-0.731,-1.16ZM-6.185,-2.311C-5.897,-2.586 -5.644,-2.78 -5.401,-2.929C-5.843,-3.499 -6.467,-4.274 -7.056,-4.914L-6.054,-5.737C-5.958,-5.627 -5.96,-5.499 -6.116,-5.257C-5.738,-4.568 -5.356,-3.746 -5.109,-3.062C-4.701,-3.224 -4.363,-3.187 -4.159,-3.069C-3.926,-2.936 -3.833,-2.697 -3.944,-2.502C-3.994,-2.415 -4.087,-2.356 -4.217,-2.303C-4.735,-2.471 -5.583,-2.39 -6.138,-2.168L-6.185,-2.311Z" style="fill:white;fill-rule:nonzero;"/>
            </g>
            <g transform="matrix(1.19698,0,0,1.19698,1433.74,235.24)">
                <path d="M0,-6.582C0.982,-5.446 2.024,-4.478 3.187,-3.804C3.121,-5.281 2.708,-6.788 2.063,-8.376L-0.067,-7.145L0,-6.582ZM3.604,-9.566C3.612,-9.356 3.51,-9.213 3.224,-9.043L2.868,-8.839C3.592,-6.942 3.997,-5.174 3.886,-3.436C5.004,-2.909 6.239,-2.65 7.613,-2.742L7.636,-2.628C7.341,-2.401 7.193,-2.087 7.281,-1.71C6,-1.753 4.854,-2.105 3.797,-2.698C3.592,-1.393 3.061,-0.086 2.11,1.238L1.936,1.109C2.751,-0.277 3.138,-1.659 3.191,-3.078C2.048,-3.847 1.016,-4.895 0.035,-6.117C0.103,-5.283 0.066,-4.505 -0.069,-3.825L-0.299,-3.823C-0.279,-5.349 -0.859,-7.672 -1.714,-9.769L-0.409,-10.18C-0.363,-10.033 -0.409,-9.909 -0.658,-9.75C-0.43,-8.981 -0.245,-8.216 -0.12,-7.456L2.162,-8.776L2.271,-9.697L3.604,-9.566ZM-1.896,-4.714L-0.677,-4.532C-0.694,-4.41 -0.801,-4.275 -0.994,-4.12C0.764,-0.844 1.394,0.665 1.175,1.305C1.038,1.713 0.838,1.957 0.354,2.235C0.113,1.817 -0.043,1.794 -0.802,2.062L-0.909,1.879C-0.635,1.736 -0.135,1.463 0.081,1.336C0.251,1.238 0.309,1.19 0.349,1.037C0.482,0.574 -0.147,-0.891 -1.759,-3.88L-3.246,-3.019C-2.362,-1.157 -1.576,1.164 -2.103,3.598L-2.374,3.554C-2.149,0.422 -3.847,-2.545 -5.056,-4.663L-6.438,-3.864L-6.661,-4.079L-4.581,-5.28L-5.807,-7.404L-4.556,-7.984C-4.468,-7.806 -4.546,-7.674 -4.892,-7.402L-3.896,-5.675L-2.963,-6.215L-2.851,-7.11L-1.553,-6.989C-1.554,-6.77 -1.636,-6.639 -1.937,-6.464L-3.93,-5.313C-3.888,-5.193 -3.967,-5.08 -4.216,-4.892C-3.954,-4.413 -3.673,-3.876 -3.377,-3.288L-2.004,-4.08L-1.896,-4.714Z" style="fill:white;fill-rule:nonzero;"/>
            </g>
            <g transform="matrix(1.19698,0,0,1.19698,1503.04,277.118)">
                <path d="M0,0.003C0,19.549 -15.834,35.394 -35.368,35.394C-54.901,35.394 -70.735,19.549 -70.735,0.003C-70.735,-19.545 -54.901,-35.391 -35.368,-35.391C-15.834,-35.391 0,-19.545 0,0.003" style="fill-rule:nonzero;"/>
            </g>
            <g transform="matrix(0,-1.19698,-1.19698,0,1460.71,234.786)">
                <path d="M-35.367,-36.348C-15.292,-36.348 1.007,-20.06 1.007,0.002C1.007,20.063 -15.292,36.351 -35.367,36.351C-55.443,36.351 -71.742,20.063 -71.742,0.002C-71.742,-20.06 -55.443,-36.348 -35.367,-36.348ZM-35.367,-34.384C-54.359,-34.384 -69.778,-18.977 -69.778,0.002C-69.778,18.98 -54.359,34.387 -35.367,34.387C-16.376,34.387 -0.957,18.98 -0.957,0.002C-0.957,-18.977 -16.376,-34.384 -35.367,-34.384Z" style="fill:white;"/>
            </g>
        </g>
    </g>
</svg>
